<svg xmlns="http://www.w3.org/2000/svg" width="300" height="300" viewBox="0 0 300 300" role="img" aria-label="Original cute monster 015">
  <defs>
    <radialGradient id="bg" cx="50%" cy="32%" r="72%">
      <stop offset="0%" stop-color="#ffffff"/>
      <stop offset="100%" stop-color="#f2f7ff"/>
    </radialGradient>
  </defs>

  <rect x="0" y="0" width="300" height="300" rx="24" fill="url(#bg)"/>
  <ellipse cx="150" cy="246" rx="78" ry="20" fill="#cad8f0" opacity="0.5"/>

  
        <ellipse cx="101" cy="165" rx="12" ry="20" fill="#62D9C9" opacity="0.85"/>
        <ellipse cx="200" cy="165" rx="12" ry="20" fill="#62D9C9" opacity="0.85"/>
        
  
        <path d="M 125 139 C 105 113, 117 97, 131 129" fill="#B8F4ED" stroke="#1C6B62" stroke-width="3"/>
        <path d="M 176 139 C 196 113, 184 97, 170 129" fill="#B8F4ED" stroke="#1C6B62" stroke-width="3"/>
        
  
  <rect x="107" y="121" width="87" height="96" rx="38" fill="#B8F4ED" stroke="#1C6B62" stroke-width="4"/>
  <ellipse cx="150" cy="193" rx="21" ry="16" fill="#ffffff" opacity="0.55"/>
  
    <ellipse cx="115" cy="180.5" rx="8" ry="14" fill="#B8F4ED" stroke="#1C6B62" stroke-width="3"/>
    <ellipse cx="186" cy="180.5" rx="8" ry="14" fill="#B8F4ED" stroke="#1C6B62" stroke-width="3"/>
    
  
    <ellipse cx="131" cy="221" rx="13" ry="8" fill="#B8F4ED" stroke="#1C6B62" stroke-width="3"/>
    <ellipse cx="170" cy="221" rx="13" ry="8" fill="#B8F4ED" stroke="#1C6B62" stroke-width="3"/>
    

  
    <ellipse cx="131" cy="154" rx="7.118392814187689" ry="8.542071377025227" fill="#ffffff"/>
    <circle cx="131" cy="154.4" r="3.915116047803229" fill="#2F6B2A"/>
    <circle cx="130.2" cy="153.4" r="1.5660464191212915" fill="#ffffff" opacity="0.95"/>
    
  
    <ellipse cx="169" cy="154" rx="7.118392814187689" ry="8.542071377025227" fill="#ffffff"/>
    <circle cx="169" cy="154.4" r="3.915116047803229" fill="#2F6B2A"/>
    <circle cx="168.2" cy="153.4" r="1.5660464191212915" fill="#ffffff" opacity="0.95"/>
    
  

  <path d="M 134 173 Q 150 180 166 173" stroke="#1C6B62" stroke-width="4" fill="none" stroke-linecap="round"/>
  <circle cx="126" cy="169" r="1.8" fill="#1C6B62" opacity="0.55"/>
  <circle cx="174" cy="169" r="1.8" fill="#1C6B62" opacity="0.55"/>
</svg>
