<svg xmlns="http://www.w3.org/2000/svg" width="300" height="300" viewBox="0 0 300 300" role="img" aria-label="Original cute monster 050">
  <defs>
    <radialGradient id="bg" cx="50%" cy="32%" r="72%">
      <stop offset="0%" stop-color="#ffffff"/>
      <stop offset="100%" stop-color="#f2f7ff"/>
    </radialGradient>
  </defs>

  <rect x="0" y="0" width="300" height="300" rx="24" fill="url(#bg)"/>
  <ellipse cx="150" cy="246" rx="78" ry="20" fill="#cad8f0" opacity="0.5"/>

  
        <ellipse cx="96" cy="148" rx="12" ry="20" fill="#62D9C9" opacity="0.85"/>
        <ellipse cx="204" cy="148" rx="12" ry="20" fill="#62D9C9" opacity="0.85"/>
        
  
        <ellipse cx="116" cy="114" rx="10" ry="14" fill="#B8F4ED" stroke="#1C6B62" stroke-width="3"/>
        <ellipse cx="184" cy="114" rx="10" ry="14" fill="#B8F4ED" stroke="#1C6B62" stroke-width="3"/>
        
  
        <path d="M 136 116 L 128 90 L 142 106 Z" fill="#62D9C9" stroke="#1C6B62" stroke-width="3"/>
        <path d="M 164 116 L 172 90 L 158 106 Z" fill="#62D9C9" stroke="#1C6B62" stroke-width="3"/>
        
  <rect x="102" y="104" width="96" height="101" rx="33" fill="#B8F4ED" stroke="#1C6B62" stroke-width="4"/>
  
  
    <ellipse cx="110" cy="166.6" rx="8" ry="14" fill="#B8F4ED" stroke="#1C6B62" stroke-width="3"/>
    <ellipse cx="190" cy="166.6" rx="8" ry="14" fill="#B8F4ED" stroke="#1C6B62" stroke-width="3"/>
    
  
    <ellipse cx="126" cy="209" rx="13" ry="8" fill="#B8F4ED" stroke="#1C6B62" stroke-width="3"/>
    <ellipse cx="174" cy="209" rx="13" ry="8" fill="#B8F4ED" stroke="#1C6B62" stroke-width="3"/>
    

  
    <ellipse cx="130" cy="139" rx="6.383939598984967" ry="7.66072751878196" fill="#ffffff"/>
    <circle cx="130" cy="139.4" r="3.5111667794417323" fill="#7A3F14"/>
    <circle cx="129.2" cy="138.4" r="1.4044667117766927" fill="#ffffff" opacity="0.95"/>
    
  
    <ellipse cx="170" cy="139" rx="6.383939598984967" ry="7.66072751878196" fill="#ffffff"/>
    <circle cx="170" cy="139.4" r="3.5111667794417323" fill="#7A3F14"/>
    <circle cx="169.2" cy="138.4" r="1.4044667117766927" fill="#ffffff" opacity="0.95"/>
    
  
        <circle cx="116" cy="149" r="6" fill="#ff8faf" opacity="0.65"/>
        <circle cx="184" cy="149" r="6" fill="#ff8faf" opacity="0.65"/>
        

  <path d="M 134 156 Q 150 166 166 156" stroke="#1C6B62" stroke-width="4" fill="none" stroke-linecap="round"/>
  <circle cx="126" cy="152" r="1.8" fill="#1C6B62" opacity="0.55"/>
  <circle cx="174" cy="152" r="1.8" fill="#1C6B62" opacity="0.55"/>
</svg>
