<svg xmlns="http://www.w3.org/2000/svg" width="300" height="300" viewBox="0 0 300 300" role="img" aria-label="Original cute monster 071">
  <defs>
    <radialGradient id="bg" cx="50%" cy="32%" r="72%">
      <stop offset="0%" stop-color="#ffffff"/>
      <stop offset="100%" stop-color="#f2f7ff"/>
    </radialGradient>
  </defs>

  <rect x="0" y="0" width="300" height="300" rx="24" fill="url(#bg)"/>
  <ellipse cx="150" cy="246" rx="78" ry="20" fill="#cad8f0" opacity="0.5"/>

  
        <ellipse cx="101" cy="155" rx="12" ry="20" fill="#FFB347" opacity="0.85"/>
        <ellipse cx="199" cy="155" rx="12" ry="20" fill="#FFB347" opacity="0.85"/>
        
  
  
        <path d="M 141 123 L 133 97 L 147 113 Z" fill="#FFB347" stroke="#7B4B00" stroke-width="3"/>
        <path d="M 159 123 L 167 97 L 153 113 Z" fill="#FFB347" stroke="#7B4B00" stroke-width="3"/>
        
  <rect x="107" y="111" width="86" height="95" rx="27" fill="#FFD86B" stroke="#7B4B00" stroke-width="4"/>
  <circle cx="130" cy="164" r="9" fill="#FFB347" opacity="0.45"/>
        <circle cx="156" cy="138" r="8" fill="#FFB347" opacity="0.45"/>
        <circle cx="169" cy="168" r="10" fill="#FFB347" opacity="0.45"/>
        <circle cx="154" cy="171" r="7" fill="#FFB347" opacity="0.45"/>
  
    <ellipse cx="115" cy="169.9" rx="8" ry="14" fill="#FFD86B" stroke="#7B4B00" stroke-width="3"/>
    <ellipse cx="185" cy="169.9" rx="8" ry="14" fill="#FFD86B" stroke="#7B4B00" stroke-width="3"/>
    
  
    <ellipse cx="131" cy="210" rx="13" ry="8" fill="#FFD86B" stroke="#7B4B00" stroke-width="3"/>
    <ellipse cx="169" cy="210" rx="13" ry="8" fill="#FFD86B" stroke="#7B4B00" stroke-width="3"/>
    

  
    <ellipse cx="132" cy="144" rx="6.239518610188666" ry="7.487422332226399" fill="#ffffff"/>
    <circle cx="132" cy="144.4" r="3.4317352356037665" fill="#6E2D8A"/>
    <circle cx="131.2" cy="143.4" r="1.3726940942415065" fill="#ffffff" opacity="0.95"/>
    
  
    <ellipse cx="168" cy="144" rx="6.239518610188666" ry="7.487422332226399" fill="#ffffff"/>
    <circle cx="168" cy="144.4" r="3.4317352356037665" fill="#6E2D8A"/>
    <circle cx="167.2" cy="143.4" r="1.3726940942415065" fill="#ffffff" opacity="0.95"/>
    
  
        <circle cx="118" cy="154" r="6" fill="#ff8faf" opacity="0.65"/>
        <circle cx="182" cy="154" r="6" fill="#ff8faf" opacity="0.65"/>
        

  <path d="M 134 166 Q 150 173 166 166" stroke="#7B4B00" stroke-width="4" fill="none" stroke-linecap="round"/>
  <circle cx="126" cy="162" r="1.8" fill="#7B4B00" opacity="0.55"/>
  <circle cx="174" cy="162" r="1.8" fill="#7B4B00" opacity="0.55"/>
</svg>
