<svg xmlns="http://www.w3.org/2000/svg" width="300" height="300" viewBox="0 0 300 300" role="img" aria-label="Original cute monster 061">
  <defs>
    <radialGradient id="bg" cx="50%" cy="32%" r="72%">
      <stop offset="0%" stop-color="#ffffff"/>
      <stop offset="100%" stop-color="#f2f7ff"/>
    </radialGradient>
  </defs>

  <rect x="0" y="0" width="300" height="300" rx="24" fill="url(#bg)"/>
  <ellipse cx="150" cy="246" rx="78" ry="20" fill="#cad8f0" opacity="0.5"/>

  
        <ellipse cx="101" cy="170" rx="12" ry="20" fill="#76D46B" opacity="0.85"/>
        <ellipse cx="200" cy="170" rx="12" ry="20" fill="#76D46B" opacity="0.85"/>
        
  
        <path d="M 125 144 C 105 118, 117 102, 131 134" fill="#B5F3A8" stroke="#2F6B2A" stroke-width="3"/>
        <path d="M 176 144 C 196 118, 184 102, 170 134" fill="#B5F3A8" stroke="#2F6B2A" stroke-width="3"/>
        
  <path d="M 150 134 L 144 108 L 156 108 Z" fill="#76D46B" stroke="#2F6B2A" stroke-width="3"/>
  <rect x="107" y="126" width="87" height="106" rx="38" fill="#B5F3A8" stroke="#2F6B2A" stroke-width="4"/>
  <rect x="119" y="160" width="63" height="7" rx="3" fill="#76D46B" opacity="0.42"/>
        <rect x="119" y="176" width="63" height="7" rx="3" fill="#76D46B" opacity="0.42"/>
        <rect x="119" y="192" width="63" height="7" rx="3" fill="#76D46B" opacity="0.42"/>
        <rect x="119" y="208" width="63" height="7" rx="3" fill="#76D46B" opacity="0.42"/>
  
    <ellipse cx="115" cy="191.7" rx="8" ry="14" fill="#B5F3A8" stroke="#2F6B2A" stroke-width="3"/>
    <ellipse cx="186" cy="191.7" rx="8" ry="14" fill="#B5F3A8" stroke="#2F6B2A" stroke-width="3"/>
    
  
    <ellipse cx="131" cy="236" rx="13" ry="8" fill="#B5F3A8" stroke="#2F6B2A" stroke-width="3"/>
    <ellipse cx="170" cy="236" rx="13" ry="8" fill="#B5F3A8" stroke="#2F6B2A" stroke-width="3"/>
    

  
    <ellipse cx="136" cy="163" rx="8.4874481448685" ry="10.184937773842199" fill="#ffffff"/>
    <circle cx="136" cy="163.4" r="4.668096479677676" fill="#2F6B2A"/>
    <circle cx="135.2" cy="162.4" r="1.86723859187107" fill="#ffffff" opacity="0.95"/>
    
  
    <ellipse cx="164" cy="163" rx="8.4874481448685" ry="10.184937773842199" fill="#ffffff"/>
    <circle cx="164" cy="163.4" r="4.668096479677676" fill="#2F6B2A"/>
    <circle cx="163.2" cy="162.4" r="1.86723859187107" fill="#ffffff" opacity="0.95"/>
    
  
        <circle cx="122" cy="173" r="6" fill="#ff8faf" opacity="0.65"/>
        <circle cx="178" cy="173" r="6" fill="#ff8faf" opacity="0.65"/>
        

  <path d="M 134 183 Q 150 190 166 183" stroke="#2F6B2A" stroke-width="4" fill="none" stroke-linecap="round"/>
  <circle cx="126" cy="179" r="1.8" fill="#2F6B2A" opacity="0.55"/>
  <circle cx="174" cy="179" r="1.8" fill="#2F6B2A" opacity="0.55"/>
</svg>
