<svg xmlns="http://www.w3.org/2000/svg" width="300" height="300" viewBox="0 0 300 300" role="img" aria-label="Original cute monster 006">
  <defs>
    <radialGradient id="bg" cx="50%" cy="32%" r="72%">
      <stop offset="0%" stop-color="#ffffff"/>
      <stop offset="100%" stop-color="#f2f7ff"/>
    </radialGradient>
  </defs>

  <rect x="0" y="0" width="300" height="300" rx="24" fill="url(#bg)"/>
  <ellipse cx="150" cy="246" rx="78" ry="20" fill="#cad8f0" opacity="0.5"/>

  
  
        <path d="M 115 121 L 107 95 L 127 117 Z" fill="#FFD86B" stroke="#7B4B00" stroke-width="3"/>
        <path d="M 185 121 L 193 95 L 173 117 Z" fill="#FFD86B" stroke="#7B4B00" stroke-width="3"/>
        
  
  <rect x="99" y="103" width="102" height="101" rx="35" fill="#FFD86B" stroke="#7B4B00" stroke-width="4"/>
  
  
    <ellipse cx="107" cy="165.6" rx="8" ry="14" fill="#FFD86B" stroke="#7B4B00" stroke-width="3"/>
    <ellipse cx="193" cy="165.6" rx="8" ry="14" fill="#FFD86B" stroke="#7B4B00" stroke-width="3"/>
    
  
    <ellipse cx="123" cy="208" rx="13" ry="8" fill="#FFD86B" stroke="#7B4B00" stroke-width="3"/>
    <ellipse cx="177" cy="208" rx="13" ry="8" fill="#FFD86B" stroke="#7B4B00" stroke-width="3"/>
    

  
    <ellipse cx="131" cy="138" rx="7.55802374434249" ry="9.069628493210988" fill="#ffffff"/>
    <circle cx="131" cy="138.4" r="4.15691305938837" fill="#6E2D8A"/>
    <circle cx="130.2" cy="137.4" r="1.6627652237553479" fill="#ffffff" opacity="0.95"/>
    
  
    <ellipse cx="169" cy="138" rx="7.55802374434249" ry="9.069628493210988" fill="#ffffff"/>
    <circle cx="169" cy="138.4" r="4.15691305938837" fill="#6E2D8A"/>
    <circle cx="168.2" cy="137.4" r="1.6627652237553479" fill="#ffffff" opacity="0.95"/>
    
  
        <circle cx="117" cy="148" r="6" fill="#ff8faf" opacity="0.65"/>
        <circle cx="183" cy="148" r="6" fill="#ff8faf" opacity="0.65"/>
        

  <path d="M 134 155 Q 150 159 166 155" stroke="#7B4B00" stroke-width="4" fill="none" stroke-linecap="round"/>
  <circle cx="126" cy="151" r="1.8" fill="#7B4B00" opacity="0.55"/>
  <circle cx="174" cy="151" r="1.8" fill="#7B4B00" opacity="0.55"/>
</svg>
