<svg xmlns="http://www.w3.org/2000/svg" width="300" height="300" viewBox="0 0 300 300" role="img" aria-label="Original cute monster 079">
  <defs>
    <radialGradient id="bg" cx="50%" cy="32%" r="72%">
      <stop offset="0%" stop-color="#ffffff"/>
      <stop offset="100%" stop-color="#f2f7ff"/>
    </radialGradient>
  </defs>

  <rect x="0" y="0" width="300" height="300" rx="24" fill="url(#bg)"/>
  <ellipse cx="150" cy="246" rx="78" ry="20" fill="#cad8f0" opacity="0.5"/>

  
  
        <path d="M 112 137 C 92 111, 104 95, 118 127" fill="#B8F4ED" stroke="#1C6B62" stroke-width="3"/>
        <path d="M 189 137 C 209 111, 197 95, 183 127" fill="#B8F4ED" stroke="#1C6B62" stroke-width="3"/>
        
  
        <path d="M 128 131 L 120 105 L 134 121 Z" fill="#62D9C9" stroke="#1C6B62" stroke-width="3"/>
        <path d="M 173 131 L 181 105 L 167 121 Z" fill="#62D9C9" stroke="#1C6B62" stroke-width="3"/>
        
  <rect x="94" y="119" width="113" height="114" rx="30" fill="#B8F4ED" stroke="#1C6B62" stroke-width="4"/>
  <rect x="106" y="153" width="89" height="7" rx="3" fill="#62D9C9" opacity="0.42"/>
        <rect x="106" y="169" width="89" height="7" rx="3" fill="#62D9C9" opacity="0.42"/>
  
    <ellipse cx="102" cy="189.7" rx="8" ry="14" fill="#B8F4ED" stroke="#1C6B62" stroke-width="3"/>
    <ellipse cx="199" cy="189.7" rx="8" ry="14" fill="#B8F4ED" stroke="#1C6B62" stroke-width="3"/>
    
  
    <ellipse cx="118" cy="237" rx="13" ry="8" fill="#B8F4ED" stroke="#1C6B62" stroke-width="3"/>
    <ellipse cx="183" cy="237" rx="13" ry="8" fill="#B8F4ED" stroke="#1C6B62" stroke-width="3"/>
    

  
    <ellipse cx="132" cy="158" rx="7.138303369288114" ry="8.565964043145737" fill="#ffffff"/>
    <circle cx="132" cy="158.4" r="3.926066853108463" fill="#2F6B2A"/>
    <circle cx="131.2" cy="157.4" r="1.5704267412433852" fill="#ffffff" opacity="0.95"/>
    
  
    <ellipse cx="168" cy="158" rx="7.138303369288114" ry="8.565964043145737" fill="#ffffff"/>
    <circle cx="168" cy="158.4" r="3.926066853108463" fill="#2F6B2A"/>
    <circle cx="167.2" cy="157.4" r="1.5704267412433852" fill="#ffffff" opacity="0.95"/>
    
  
        <circle cx="118" cy="168" r="6" fill="#ff8faf" opacity="0.65"/>
        <circle cx="182" cy="168" r="6" fill="#ff8faf" opacity="0.65"/>
        

  <path d="M 134 180 Q 150 184 166 180" stroke="#1C6B62" stroke-width="4" fill="none" stroke-linecap="round"/>
  <circle cx="126" cy="176" r="1.8" fill="#1C6B62" opacity="0.55"/>
  <circle cx="174" cy="176" r="1.8" fill="#1C6B62" opacity="0.55"/>
</svg>
