<svg xmlns="http://www.w3.org/2000/svg" width="300" height="300" viewBox="0 0 300 300" role="img" aria-label="Original cute monster 086">
  <defs>
    <radialGradient id="bg" cx="50%" cy="32%" r="72%">
      <stop offset="0%" stop-color="#ffffff"/>
      <stop offset="100%" stop-color="#f2f7ff"/>
    </radialGradient>
  </defs>

  <rect x="0" y="0" width="300" height="300" rx="24" fill="url(#bg)"/>
  <ellipse cx="150" cy="246" rx="78" ry="20" fill="#cad8f0" opacity="0.5"/>

  
        <ellipse cx="87" cy="160" rx="12" ry="20" fill="#FF9B63" opacity="0.85"/>
        <ellipse cx="214" cy="160" rx="12" ry="20" fill="#FF9B63" opacity="0.85"/>
        
  
        <path d="M 109 134 L 101 108 L 121 130 Z" fill="#FFD1A9" stroke="#8A3A14" stroke-width="3"/>
        <path d="M 192 134 L 200 108 L 180 130 Z" fill="#FFD1A9" stroke="#8A3A14" stroke-width="3"/>
        
  
  <rect x="93" y="116" width="115" height="120" rx="26" fill="#FFD1A9" stroke="#8A3A14" stroke-width="4"/>
  <rect x="105" y="150" width="91" height="7" rx="3" fill="#FF9B63" opacity="0.42"/>
        <rect x="105" y="166" width="91" height="7" rx="3" fill="#FF9B63" opacity="0.42"/>
        <rect x="105" y="182" width="91" height="7" rx="3" fill="#FF9B63" opacity="0.42"/>
        <rect x="105" y="198" width="91" height="7" rx="3" fill="#FF9B63" opacity="0.42"/>
  
    <ellipse cx="101" cy="190.4" rx="8" ry="14" fill="#FFD1A9" stroke="#8A3A14" stroke-width="3"/>
    <ellipse cx="200" cy="190.4" rx="8" ry="14" fill="#FFD1A9" stroke="#8A3A14" stroke-width="3"/>
    
  
    <ellipse cx="117" cy="240" rx="13" ry="8" fill="#FFD1A9" stroke="#8A3A14" stroke-width="3"/>
    <ellipse cx="184" cy="240" rx="13" ry="8" fill="#FFD1A9" stroke="#8A3A14" stroke-width="3"/>
    

  
    <ellipse cx="135" cy="158" rx="8.041000839345791" ry="9.64920100721495" fill="#ffffff"/>
    <circle cx="135" cy="158.4" r="4.422550461640186" fill="#6E2D8A"/>
    <circle cx="134.2" cy="157.4" r="1.769020184656074" fill="#ffffff" opacity="0.95"/>
    
  
    <ellipse cx="165" cy="158" rx="8.041000839345791" ry="9.64920100721495" fill="#ffffff"/>
    <circle cx="165" cy="158.4" r="4.422550461640186" fill="#6E2D8A"/>
    <circle cx="164.2" cy="157.4" r="1.769020184656074" fill="#ffffff" opacity="0.95"/>
    
  
        <circle cx="121" cy="168" r="6" fill="#ff8faf" opacity="0.65"/>
        <circle cx="179" cy="168" r="6" fill="#ff8faf" opacity="0.65"/>
        

  <path d="M 134 178 Q 150 185 166 178" stroke="#8A3A14" stroke-width="4" fill="none" stroke-linecap="round"/>
  <circle cx="126" cy="174" r="1.8" fill="#8A3A14" opacity="0.55"/>
  <circle cx="174" cy="174" r="1.8" fill="#8A3A14" opacity="0.55"/>
</svg>
