<svg xmlns="http://www.w3.org/2000/svg" width="300" height="300" viewBox="0 0 300 300" role="img" aria-label="Original cute monster 034">
  <defs>
    <radialGradient id="bg" cx="50%" cy="32%" r="72%">
      <stop offset="0%" stop-color="#ffffff"/>
      <stop offset="100%" stop-color="#f2f7ff"/>
    </radialGradient>
  </defs>

  <rect x="0" y="0" width="300" height="300" rx="24" fill="url(#bg)"/>
  <ellipse cx="150" cy="246" rx="78" ry="20" fill="#cad8f0" opacity="0.5"/>

  
        <path d="M 95 159 C 79 135, 81 191, 105 179" fill="#62D9C9" opacity="0.85"/>
        <path d="M 206 159 C 222 135, 220 191, 196 179" fill="#62D9C9" opacity="0.85"/>
        
  
  <path d="M 150 125 L 144 99 L 156 99 Z" fill="#62D9C9" stroke="#1C6B62" stroke-width="3"/>
  <rect x="103" y="117" width="95" height="117" rx="29" fill="#B8F4ED" stroke="#1C6B62" stroke-width="4"/>
  <circle cx="153" cy="205" r="10" fill="#62D9C9" opacity="0.45"/>
        <circle cx="143" cy="173" r="7" fill="#62D9C9" opacity="0.45"/>
  
    <ellipse cx="111" cy="189.5" rx="8" ry="14" fill="#B8F4ED" stroke="#1C6B62" stroke-width="3"/>
    <ellipse cx="190" cy="189.5" rx="8" ry="14" fill="#B8F4ED" stroke="#1C6B62" stroke-width="3"/>
    
  
    <ellipse cx="127" cy="238" rx="13" ry="8" fill="#B8F4ED" stroke="#1C6B62" stroke-width="3"/>
    <ellipse cx="174" cy="238" rx="13" ry="8" fill="#B8F4ED" stroke="#1C6B62" stroke-width="3"/>
    

  
    <ellipse cx="134" cy="157" rx="7.0971842657146755" ry="8.51662111885761" fill="#ffffff"/>
    <circle cx="134" cy="157.4" r="3.903451346143072" fill="#6E2D8A"/>
    <circle cx="133.2" cy="156.4" r="1.5613805384572286" fill="#ffffff" opacity="0.95"/>
    
  
    <ellipse cx="166" cy="157" rx="7.0971842657146755" ry="8.51662111885761" fill="#ffffff"/>
    <circle cx="166" cy="157.4" r="3.903451346143072" fill="#6E2D8A"/>
    <circle cx="165.2" cy="156.4" r="1.5613805384572286" fill="#ffffff" opacity="0.95"/>
    
  
        <circle cx="120" cy="167" r="6" fill="#ff8faf" opacity="0.65"/>
        <circle cx="180" cy="167" r="6" fill="#ff8faf" opacity="0.65"/>
        

  <path d="M 134 179 Q 150 183 166 179" stroke="#1C6B62" stroke-width="4" fill="none" stroke-linecap="round"/>
  <circle cx="126" cy="175" r="1.8" fill="#1C6B62" opacity="0.55"/>
  <circle cx="174" cy="175" r="1.8" fill="#1C6B62" opacity="0.55"/>
</svg>
