<svg xmlns="http://www.w3.org/2000/svg" width="300" height="300" viewBox="0 0 300 300" role="img" aria-label="Original cute monster 085">
  <defs>
    <radialGradient id="bg" cx="50%" cy="32%" r="72%">
      <stop offset="0%" stop-color="#ffffff"/>
      <stop offset="100%" stop-color="#f2f7ff"/>
    </radialGradient>
  </defs>

  <rect x="0" y="0" width="300" height="300" rx="24" fill="url(#bg)"/>
  <ellipse cx="150" cy="246" rx="78" ry="20" fill="#cad8f0" opacity="0.5"/>

  
        <ellipse cx="92" cy="155" rx="12" ry="20" fill="#5AB9FF" opacity="0.85"/>
        <ellipse cx="209" cy="155" rx="12" ry="20" fill="#5AB9FF" opacity="0.85"/>
        
  
        <path d="M 116 129 C 96 103, 108 87, 122 119" fill="#8EE6FF" stroke="#1E4C7A" stroke-width="3"/>
        <path d="M 185 129 C 205 103, 193 87, 179 119" fill="#8EE6FF" stroke="#1E4C7A" stroke-width="3"/>
        
  
        <path d="M 132 123 L 124 97 L 138 113 Z" fill="#5AB9FF" stroke="#1E4C7A" stroke-width="3"/>
        <path d="M 169 123 L 177 97 L 163 113 Z" fill="#5AB9FF" stroke="#1E4C7A" stroke-width="3"/>
        
  <rect x="98" y="111" width="105" height="113" rx="32" fill="#8EE6FF" stroke="#1E4C7A" stroke-width="4"/>
  <ellipse cx="150" cy="200" rx="26" ry="18" fill="#ffffff" opacity="0.55"/>
  
    <ellipse cx="106" cy="181.1" rx="8" ry="14" fill="#8EE6FF" stroke="#1E4C7A" stroke-width="3"/>
    <ellipse cx="195" cy="181.1" rx="8" ry="14" fill="#8EE6FF" stroke="#1E4C7A" stroke-width="3"/>
    
  
    <ellipse cx="122" cy="228" rx="13" ry="8" fill="#8EE6FF" stroke="#1E4C7A" stroke-width="3"/>
    <ellipse cx="179" cy="228" rx="13" ry="8" fill="#8EE6FF" stroke="#1E4C7A" stroke-width="3"/>
    

  
    <ellipse cx="132" cy="150" rx="8.14730164766145" ry="9.77676197719374" fill="#ffffff"/>
    <circle cx="132" cy="150.4" r="4.481015906213798" fill="#7A3F14"/>
    <circle cx="131.2" cy="149.4" r="1.792406362485519" fill="#ffffff" opacity="0.95"/>
    
  
    <ellipse cx="168" cy="150" rx="8.14730164766145" ry="9.77676197719374" fill="#ffffff"/>
    <circle cx="168" cy="150.4" r="4.481015906213798" fill="#7A3F14"/>
    <circle cx="167.2" cy="149.4" r="1.792406362485519" fill="#ffffff" opacity="0.95"/>
    
  
        <circle cx="118" cy="160" r="6" fill="#ff8faf" opacity="0.65"/>
        <circle cx="182" cy="160" r="6" fill="#ff8faf" opacity="0.65"/>
        

  <path d="M 134 173 Q 150 183 166 173" stroke="#1E4C7A" stroke-width="4" fill="none" stroke-linecap="round"/>
  <circle cx="126" cy="169" r="1.8" fill="#1E4C7A" opacity="0.55"/>
  <circle cx="174" cy="169" r="1.8" fill="#1E4C7A" opacity="0.55"/>
</svg>
