<svg xmlns="http://www.w3.org/2000/svg" width="300" height="300" viewBox="0 0 300 300" role="img" aria-label="Original cute monster 087">
  <defs>
    <radialGradient id="bg" cx="50%" cy="32%" r="72%">
      <stop offset="0%" stop-color="#ffffff"/>
      <stop offset="100%" stop-color="#f2f7ff"/>
    </radialGradient>
  </defs>

  <rect x="0" y="0" width="300" height="300" rx="24" fill="url(#bg)"/>
  <ellipse cx="150" cy="246" rx="78" ry="20" fill="#cad8f0" opacity="0.5"/>

  
        <ellipse cx="92" cy="162" rx="12" ry="20" fill="#FFB347" opacity="0.85"/>
        <ellipse cx="209" cy="162" rx="12" ry="20" fill="#FFB347" opacity="0.85"/>
        
  
  
        <path d="M 126 128 C 118 100, 128 92, 138 88" stroke="#7B4B00" stroke-width="3" fill="none"/>
        <circle cx="138" cy="88" r="4" fill="#FFB347"/>
        <path d="M 175 128 C 183 100, 173 92, 163 88" stroke="#7B4B00" stroke-width="3" fill="none"/>
        <circle cx="163" cy="88" r="4" fill="#FFB347"/>
        
  <rect x="98" y="118" width="105" height="122" rx="37" fill="#FFD86B" stroke="#7B4B00" stroke-width="4"/>
  
  
    <ellipse cx="106" cy="193.6" rx="8" ry="14" fill="#FFD86B" stroke="#7B4B00" stroke-width="3"/>
    <ellipse cx="195" cy="193.6" rx="8" ry="14" fill="#FFD86B" stroke="#7B4B00" stroke-width="3"/>
    
  
    <ellipse cx="122" cy="244" rx="13" ry="8" fill="#FFD86B" stroke="#7B4B00" stroke-width="3"/>
    <ellipse cx="179" cy="244" rx="13" ry="8" fill="#FFD86B" stroke="#7B4B00" stroke-width="3"/>
    

  
    <ellipse cx="131" cy="160" rx="6.614561295669906" ry="7.937473554803886" fill="#ffffff"/>
    <circle cx="131" cy="160.4" r="3.6380087126184484" fill="#7A3F14"/>
    <circle cx="130.2" cy="159.4" r="1.4552034850473792" fill="#ffffff" opacity="0.95"/>
    
  
    <ellipse cx="169" cy="160" rx="6.614561295669906" ry="7.937473554803886" fill="#ffffff"/>
    <circle cx="169" cy="160.4" r="3.6380087126184484" fill="#7A3F14"/>
    <circle cx="168.2" cy="159.4" r="1.4552034850473792" fill="#ffffff" opacity="0.95"/>
    
  

  <path d="M 134 181 Q 150 188 166 181" stroke="#7B4B00" stroke-width="4" fill="none" stroke-linecap="round"/>
  <circle cx="126" cy="177" r="1.8" fill="#7B4B00" opacity="0.55"/>
  <circle cx="174" cy="177" r="1.8" fill="#7B4B00" opacity="0.55"/>
</svg>
