<svg xmlns="http://www.w3.org/2000/svg" width="300" height="300" viewBox="0 0 300 300" role="img" aria-label="Original cute monster 004">
  <defs>
    <radialGradient id="bg" cx="50%" cy="32%" r="72%">
      <stop offset="0%" stop-color="#ffffff"/>
      <stop offset="100%" stop-color="#f2f7ff"/>
    </radialGradient>
  </defs>

  <rect x="0" y="0" width="300" height="300" rx="24" fill="url(#bg)"/>
  <ellipse cx="150" cy="246" rx="78" ry="20" fill="#cad8f0" opacity="0.5"/>

  
  
        <ellipse cx="115" cy="117" rx="10" ry="14" fill="#C8B1FF" stroke="#45208A" stroke-width="3"/>
        <ellipse cx="185" cy="117" rx="10" ry="14" fill="#C8B1FF" stroke="#45208A" stroke-width="3"/>
        
  
        <path d="M 135 119 L 127 93 L 141 109 Z" fill="#9B7BFF" stroke="#45208A" stroke-width="3"/>
        <path d="M 165 119 L 173 93 L 159 109 Z" fill="#9B7BFF" stroke="#45208A" stroke-width="3"/>
        
  <rect x="101" y="107" width="98" height="117" rx="30" fill="#C8B1FF" stroke="#45208A" stroke-width="4"/>
  <ellipse cx="150" cy="200" rx="24" ry="19" fill="#ffffff" opacity="0.55"/>
  
    <ellipse cx="109" cy="179.5" rx="8" ry="14" fill="#C8B1FF" stroke="#45208A" stroke-width="3"/>
    <ellipse cx="191" cy="179.5" rx="8" ry="14" fill="#C8B1FF" stroke="#45208A" stroke-width="3"/>
    
  
    <ellipse cx="125" cy="228" rx="13" ry="8" fill="#C8B1FF" stroke="#45208A" stroke-width="3"/>
    <ellipse cx="175" cy="228" rx="13" ry="8" fill="#C8B1FF" stroke="#45208A" stroke-width="3"/>
    

  
    <ellipse cx="136" cy="147" rx="7.006549440700433" ry="8.40785932884052" fill="#ffffff"/>
    <circle cx="136" cy="147.4" r="3.8536021923852384" fill="#6E2D8A"/>
    <circle cx="135.2" cy="146.4" r="1.5414408769540953" fill="#ffffff" opacity="0.95"/>
    
  
    <ellipse cx="164" cy="147" rx="7.006549440700433" ry="8.40785932884052" fill="#ffffff"/>
    <circle cx="164" cy="147.4" r="3.8536021923852384" fill="#6E2D8A"/>
    <circle cx="163.2" cy="146.4" r="1.5414408769540953" fill="#ffffff" opacity="0.95"/>
    
  

  <path d="M 134 166 Q 150 170 166 166" stroke="#45208A" stroke-width="4" fill="none" stroke-linecap="round"/>
  <circle cx="126" cy="162" r="1.8" fill="#45208A" opacity="0.55"/>
  <circle cx="174" cy="162" r="1.8" fill="#45208A" opacity="0.55"/>
</svg>
