<svg xmlns="http://www.w3.org/2000/svg" width="300" height="300" viewBox="0 0 300 300" role="img" aria-label="Original cute monster 074">
  <defs>
    <radialGradient id="bg" cx="50%" cy="32%" r="72%">
      <stop offset="0%" stop-color="#ffffff"/>
      <stop offset="100%" stop-color="#f2f7ff"/>
    </radialGradient>
  </defs>

  <rect x="0" y="0" width="300" height="300" rx="24" fill="url(#bg)"/>
  <ellipse cx="150" cy="246" rx="78" ry="20" fill="#cad8f0" opacity="0.5"/>

  
        <path d="M 99 159 C 83 135, 85 191, 109 179" fill="#62D9C9" opacity="0.85"/>
        <path d="M 201 159 C 217 135, 215 191, 191 179" fill="#62D9C9" opacity="0.85"/>
        
  
        <path d="M 125 135 C 105 109, 117 93, 131 125" fill="#B8F4ED" stroke="#1C6B62" stroke-width="3"/>
        <path d="M 175 135 C 195 109, 183 93, 169 125" fill="#B8F4ED" stroke="#1C6B62" stroke-width="3"/>
        
  
        <path d="M 135 127 C 127 99, 137 91, 147 87" stroke="#1C6B62" stroke-width="3" fill="none"/>
        <circle cx="147" cy="87" r="4" fill="#62D9C9"/>
        <path d="M 165 127 C 173 99, 163 91, 153 87" stroke="#1C6B62" stroke-width="3" fill="none"/>
        <circle cx="153" cy="87" r="4" fill="#62D9C9"/>
        
  <rect x="107" y="117" width="86" height="121" rx="29" fill="#B8F4ED" stroke="#1C6B62" stroke-width="4"/>
  <ellipse cx="150" cy="214" rx="21" ry="20" fill="#ffffff" opacity="0.55"/>
  
    <ellipse cx="115" cy="192.0" rx="8" ry="14" fill="#B8F4ED" stroke="#1C6B62" stroke-width="3"/>
    <ellipse cx="185" cy="192.0" rx="8" ry="14" fill="#B8F4ED" stroke="#1C6B62" stroke-width="3"/>
    
  
    <ellipse cx="131" cy="242" rx="13" ry="8" fill="#B8F4ED" stroke="#1C6B62" stroke-width="3"/>
    <ellipse cx="169" cy="242" rx="13" ry="8" fill="#B8F4ED" stroke="#1C6B62" stroke-width="3"/>
    

  
    <ellipse cx="133" cy="159" rx="8.411085098307344" ry="10.093302117968813" fill="#ffffff"/>
    <circle cx="133" cy="159.4" r="4.62609680406904" fill="#7A3F14"/>
    <circle cx="132.2" cy="158.4" r="1.8504387216276157" fill="#ffffff" opacity="0.95"/>
    
  
    <ellipse cx="167" cy="159" rx="8.411085098307344" ry="10.093302117968813" fill="#ffffff"/>
    <circle cx="167" cy="159.4" r="4.62609680406904" fill="#7A3F14"/>
    <circle cx="166.2" cy="158.4" r="1.8504387216276157" fill="#ffffff" opacity="0.95"/>
    
  
        <circle cx="119" cy="169" r="6" fill="#ff8faf" opacity="0.65"/>
        <circle cx="181" cy="169" r="6" fill="#ff8faf" opacity="0.65"/>
        

  <path d="M 134 176 Q 150 186 166 176" stroke="#1C6B62" stroke-width="4" fill="none" stroke-linecap="round"/>
  <circle cx="126" cy="172" r="1.8" fill="#1C6B62" opacity="0.55"/>
  <circle cx="174" cy="172" r="1.8" fill="#1C6B62" opacity="0.55"/>
</svg>
