<svg xmlns="http://www.w3.org/2000/svg" width="300" height="300" viewBox="0 0 300 300" role="img" aria-label="Original cute monster 045">
  <defs>
    <radialGradient id="bg" cx="50%" cy="32%" r="72%">
      <stop offset="0%" stop-color="#ffffff"/>
      <stop offset="100%" stop-color="#f2f7ff"/>
    </radialGradient>
  </defs>

  <rect x="0" y="0" width="300" height="300" rx="24" fill="url(#bg)"/>
  <ellipse cx="150" cy="246" rx="78" ry="20" fill="#cad8f0" opacity="0.5"/>

  
        <ellipse cx="95" cy="154" rx="12" ry="20" fill="#76D46B" opacity="0.85"/>
        <ellipse cx="205" cy="154" rx="12" ry="20" fill="#76D46B" opacity="0.85"/>
        
  
        <path d="M 117 128 L 109 102 L 129 124 Z" fill="#B5F3A8" stroke="#2F6B2A" stroke-width="3"/>
        <path d="M 183 128 L 191 102 L 171 124 Z" fill="#B5F3A8" stroke="#2F6B2A" stroke-width="3"/>
        
  
        <path d="M 129 120 C 121 92, 131 84, 141 80" stroke="#2F6B2A" stroke-width="3" fill="none"/>
        <circle cx="141" cy="80" r="4" fill="#76D46B"/>
        <path d="M 171 120 C 179 92, 169 84, 159 80" stroke="#2F6B2A" stroke-width="3" fill="none"/>
        <circle cx="159" cy="80" r="4" fill="#76D46B"/>
        
  <rect x="101" y="110" width="98" height="96" rx="27" fill="#B5F3A8" stroke="#2F6B2A" stroke-width="4"/>
  
  
    <ellipse cx="109" cy="169.5" rx="8" ry="14" fill="#B5F3A8" stroke="#2F6B2A" stroke-width="3"/>
    <ellipse cx="191" cy="169.5" rx="8" ry="14" fill="#B5F3A8" stroke="#2F6B2A" stroke-width="3"/>
    
  
    <ellipse cx="125" cy="210" rx="13" ry="8" fill="#B5F3A8" stroke="#2F6B2A" stroke-width="3"/>
    <ellipse cx="175" cy="210" rx="13" ry="8" fill="#B5F3A8" stroke="#2F6B2A" stroke-width="3"/>
    

  
    <ellipse cx="132" cy="143" rx="7.48676104409371" ry="8.98411325291245" fill="#ffffff"/>
    <circle cx="132" cy="143.4" r="4.1177185742515405" fill="#6E2D8A"/>
    <circle cx="131.2" cy="142.4" r="1.6470874297006162" fill="#ffffff" opacity="0.95"/>
    
  
    <ellipse cx="168" cy="143" rx="7.48676104409371" ry="8.98411325291245" fill="#ffffff"/>
    <circle cx="168" cy="143.4" r="4.1177185742515405" fill="#6E2D8A"/>
    <circle cx="167.2" cy="142.4" r="1.6470874297006162" fill="#ffffff" opacity="0.95"/>
    
  
        <circle cx="118" cy="153" r="6" fill="#ff8faf" opacity="0.65"/>
        <circle cx="182" cy="153" r="6" fill="#ff8faf" opacity="0.65"/>
        

  <path d="M 134 163 Q 150 167 166 163" stroke="#2F6B2A" stroke-width="4" fill="none" stroke-linecap="round"/>
  <circle cx="126" cy="159" r="1.8" fill="#2F6B2A" opacity="0.55"/>
  <circle cx="174" cy="159" r="1.8" fill="#2F6B2A" opacity="0.55"/>
</svg>
