<svg xmlns="http://www.w3.org/2000/svg" width="300" height="300" viewBox="0 0 300 300" role="img" aria-label="Original cute monster 005">
  <defs>
    <radialGradient id="bg" cx="50%" cy="32%" r="72%">
      <stop offset="0%" stop-color="#ffffff"/>
      <stop offset="100%" stop-color="#f2f7ff"/>
    </radialGradient>
  </defs>

  <rect x="0" y="0" width="300" height="300" rx="24" fill="url(#bg)"/>
  <ellipse cx="150" cy="246" rx="78" ry="20" fill="#cad8f0" opacity="0.5"/>

  
        <path d="M 89 148 C 73 124, 75 180, 99 168" fill="#9B7BFF" opacity="0.85"/>
        <path d="M 212 148 C 228 124, 226 180, 202 168" fill="#9B7BFF" opacity="0.85"/>
        
  
        <path d="M 113 124 L 105 98 L 125 120 Z" fill="#C8B1FF" stroke="#45208A" stroke-width="3"/>
        <path d="M 188 124 L 196 98 L 176 120 Z" fill="#C8B1FF" stroke="#45208A" stroke-width="3"/>
        
  <path d="M 150 114 L 144 88 L 156 88 Z" fill="#9B7BFF" stroke="#45208A" stroke-width="3"/>
  <rect x="97" y="106" width="107" height="98" rx="36" fill="#C8B1FF" stroke="#45208A" stroke-width="4"/>
  
  
    <ellipse cx="105" cy="166.8" rx="8" ry="14" fill="#C8B1FF" stroke="#45208A" stroke-width="3"/>
    <ellipse cx="196" cy="166.8" rx="8" ry="14" fill="#C8B1FF" stroke="#45208A" stroke-width="3"/>
    
  
    <ellipse cx="121" cy="208" rx="13" ry="8" fill="#C8B1FF" stroke="#45208A" stroke-width="3"/>
    <ellipse cx="180" cy="208" rx="13" ry="8" fill="#C8B1FF" stroke="#45208A" stroke-width="3"/>
    

  
    <ellipse cx="132" cy="140" rx="6.3784321794540375" ry="7.654118615344845" fill="#ffffff"/>
    <circle cx="132" cy="140.4" r="3.508137698699721" fill="#2F6B2A"/>
    <circle cx="131.2" cy="139.4" r="1.4032550794798884" fill="#ffffff" opacity="0.95"/>
    
  
    <ellipse cx="168" cy="140" rx="6.3784321794540375" ry="7.654118615344845" fill="#ffffff"/>
    <circle cx="168" cy="140.4" r="3.508137698699721" fill="#2F6B2A"/>
    <circle cx="167.2" cy="139.4" r="1.4032550794798884" fill="#ffffff" opacity="0.95"/>
    
  
        <circle cx="118" cy="150" r="6" fill="#ff8faf" opacity="0.65"/>
        <circle cx="182" cy="150" r="6" fill="#ff8faf" opacity="0.65"/>
        

  <path d="M 134 164 Q 150 174 166 164" stroke="#45208A" stroke-width="4" fill="none" stroke-linecap="round"/>
  <circle cx="126" cy="160" r="1.8" fill="#45208A" opacity="0.55"/>
  <circle cx="174" cy="160" r="1.8" fill="#45208A" opacity="0.55"/>
</svg>
