<svg xmlns="http://www.w3.org/2000/svg" width="300" height="300" viewBox="0 0 300 300" role="img" aria-label="Original cute monster 013">
  <defs>
    <radialGradient id="bg" cx="50%" cy="32%" r="72%">
      <stop offset="0%" stop-color="#ffffff"/>
      <stop offset="100%" stop-color="#f2f7ff"/>
    </radialGradient>
  </defs>

  <rect x="0" y="0" width="300" height="300" rx="24" fill="url(#bg)"/>
  <ellipse cx="150" cy="246" rx="78" ry="20" fill="#cad8f0" opacity="0.5"/>

  
        <path d="M 97 146 C 81 122, 83 178, 107 166" fill="#FF71B8" opacity="0.85"/>
        <path d="M 203 146 C 219 122, 217 178, 193 166" fill="#FF71B8" opacity="0.85"/>
        
  
        <path d="M 121 122 L 113 96 L 133 118 Z" fill="#FF9FD2" stroke="#7A2350" stroke-width="3"/>
        <path d="M 179 122 L 187 96 L 167 118 Z" fill="#FF9FD2" stroke="#7A2350" stroke-width="3"/>
        
  
        <path d="M 139 116 L 131 90 L 145 106 Z" fill="#FF71B8" stroke="#7A2350" stroke-width="3"/>
        <path d="M 161 116 L 169 90 L 155 106 Z" fill="#FF71B8" stroke="#7A2350" stroke-width="3"/>
        
  <rect x="105" y="104" width="90" height="99" rx="27" fill="#FF9FD2" stroke="#7A2350" stroke-width="4"/>
  <ellipse cx="150" cy="179" rx="22" ry="16" fill="#ffffff" opacity="0.55"/>
  
    <ellipse cx="113" cy="165.4" rx="8" ry="14" fill="#FF9FD2" stroke="#7A2350" stroke-width="3"/>
    <ellipse cx="187" cy="165.4" rx="8" ry="14" fill="#FF9FD2" stroke="#7A2350" stroke-width="3"/>
    
  
    <ellipse cx="129" cy="207" rx="13" ry="8" fill="#FF9FD2" stroke="#7A2350" stroke-width="3"/>
    <ellipse cx="171" cy="207" rx="13" ry="8" fill="#FF9FD2" stroke="#7A2350" stroke-width="3"/>
    

  
    <ellipse cx="132" cy="138" rx="6.8159253869359295" ry="8.179110464323115" fill="#ffffff"/>
    <circle cx="132" cy="138.4" r="3.7487589628147617" fill="#2A2A2A"/>
    <circle cx="131.2" cy="137.4" r="1.4995035851259044" fill="#ffffff" opacity="0.95"/>
    
  
    <ellipse cx="168" cy="138" rx="6.8159253869359295" ry="8.179110464323115" fill="#ffffff"/>
    <circle cx="168" cy="138.4" r="3.7487589628147617" fill="#2A2A2A"/>
    <circle cx="167.2" cy="137.4" r="1.4995035851259044" fill="#ffffff" opacity="0.95"/>
    
  

  <path d="M 134 162 Q 150 172 166 162" stroke="#7A2350" stroke-width="4" fill="none" stroke-linecap="round"/>
  <circle cx="126" cy="158" r="1.8" fill="#7A2350" opacity="0.55"/>
  <circle cx="174" cy="158" r="1.8" fill="#7A2350" opacity="0.55"/>
</svg>
