<svg xmlns="http://www.w3.org/2000/svg" width="300" height="300" viewBox="0 0 300 300" role="img" aria-label="Original cute monster 076">
  <defs>
    <radialGradient id="bg" cx="50%" cy="32%" r="72%">
      <stop offset="0%" stop-color="#ffffff"/>
      <stop offset="100%" stop-color="#f2f7ff"/>
    </radialGradient>
  </defs>

  <rect x="0" y="0" width="300" height="300" rx="24" fill="url(#bg)"/>
  <ellipse cx="150" cy="246" rx="78" ry="20" fill="#cad8f0" opacity="0.5"/>

  
        <ellipse cx="96" cy="168" rx="12" ry="20" fill="#FF9B63" opacity="0.85"/>
        <ellipse cx="205" cy="168" rx="12" ry="20" fill="#FF9B63" opacity="0.85"/>
        
  
        <path d="M 118 142 L 110 116 L 130 138 Z" fill="#FFD1A9" stroke="#8A3A14" stroke-width="3"/>
        <path d="M 183 142 L 191 116 L 171 138 Z" fill="#FFD1A9" stroke="#8A3A14" stroke-width="3"/>
        
  <path d="M 150 132 L 144 106 L 156 106 Z" fill="#FF9B63" stroke="#8A3A14" stroke-width="3"/>
  <rect x="102" y="124" width="97" height="104" rx="39" fill="#FFD1A9" stroke="#8A3A14" stroke-width="4"/>
  <rect x="114" y="158" width="73" height="7" rx="3" fill="#FF9B63" opacity="0.42"/>
        <rect x="114" y="174" width="73" height="7" rx="3" fill="#FF9B63" opacity="0.42"/>
        <rect x="114" y="190" width="73" height="7" rx="3" fill="#FF9B63" opacity="0.42"/>
        <rect x="114" y="206" width="73" height="7" rx="3" fill="#FF9B63" opacity="0.42"/>
  
    <ellipse cx="110" cy="188.5" rx="8" ry="14" fill="#FFD1A9" stroke="#8A3A14" stroke-width="3"/>
    <ellipse cx="191" cy="188.5" rx="8" ry="14" fill="#FFD1A9" stroke="#8A3A14" stroke-width="3"/>
    
  
    <ellipse cx="126" cy="232" rx="13" ry="8" fill="#FFD1A9" stroke="#8A3A14" stroke-width="3"/>
    <ellipse cx="175" cy="232" rx="13" ry="8" fill="#FFD1A9" stroke="#8A3A14" stroke-width="3"/>
    

  
    <ellipse cx="131" cy="160" rx="7.666401893639344" ry="9.199682272367212" fill="#ffffff"/>
    <circle cx="131" cy="160.4" r="4.21652104150164" fill="#2F6B2A"/>
    <circle cx="130.2" cy="159.4" r="1.6866084166006559" fill="#ffffff" opacity="0.95"/>
    
  
    <ellipse cx="169" cy="160" rx="7.666401893639344" ry="9.199682272367212" fill="#ffffff"/>
    <circle cx="169" cy="160.4" r="4.21652104150164" fill="#2F6B2A"/>
    <circle cx="168.2" cy="159.4" r="1.6866084166006559" fill="#ffffff" opacity="0.95"/>
    
  

  <path d="M 134 182 Q 150 186 166 182" stroke="#8A3A14" stroke-width="4" fill="none" stroke-linecap="round"/>
  <circle cx="126" cy="178" r="1.8" fill="#8A3A14" opacity="0.55"/>
  <circle cx="174" cy="178" r="1.8" fill="#8A3A14" opacity="0.55"/>
</svg>
