<svg xmlns="http://www.w3.org/2000/svg" width="300" height="300" viewBox="0 0 300 300" role="img" aria-label="Original cute monster 060">
  <defs>
    <radialGradient id="bg" cx="50%" cy="32%" r="72%">
      <stop offset="0%" stop-color="#ffffff"/>
      <stop offset="100%" stop-color="#f2f7ff"/>
    </radialGradient>
  </defs>

  <rect x="0" y="0" width="300" height="300" rx="24" fill="url(#bg)"/>
  <ellipse cx="150" cy="246" rx="78" ry="20" fill="#cad8f0" opacity="0.5"/>

  
  
        <path d="M 119 126 C 99 100, 111 84, 125 116" fill="#FFD1A9" stroke="#8A3A14" stroke-width="3"/>
        <path d="M 181 126 C 201 100, 189 84, 175 116" fill="#FFD1A9" stroke="#8A3A14" stroke-width="3"/>
        
  
        <path d="M 135 120 L 127 94 L 141 110 Z" fill="#FF9B63" stroke="#8A3A14" stroke-width="3"/>
        <path d="M 165 120 L 173 94 L 159 110 Z" fill="#FF9B63" stroke="#8A3A14" stroke-width="3"/>
        
  <rect x="101" y="108" width="98" height="89" rx="40" fill="#FFD1A9" stroke="#8A3A14" stroke-width="4"/>
  
  
    <ellipse cx="109" cy="163.2" rx="8" ry="14" fill="#FFD1A9" stroke="#8A3A14" stroke-width="3"/>
    <ellipse cx="191" cy="163.2" rx="8" ry="14" fill="#FFD1A9" stroke="#8A3A14" stroke-width="3"/>
    
  
    <ellipse cx="125" cy="201" rx="13" ry="8" fill="#FFD1A9" stroke="#8A3A14" stroke-width="3"/>
    <ellipse cx="175" cy="201" rx="13" ry="8" fill="#FFD1A9" stroke="#8A3A14" stroke-width="3"/>
    

  
    <ellipse cx="135" cy="139" rx="7.152159029248289" ry="8.582590835097946" fill="#ffffff"/>
    <circle cx="135" cy="139.4" r="3.9336874660865595" fill="#314A9A"/>
    <circle cx="134.2" cy="138.4" r="1.5734749864346236" fill="#ffffff" opacity="0.95"/>
    
  
    <ellipse cx="165" cy="139" rx="7.152159029248289" ry="8.582590835097946" fill="#ffffff"/>
    <circle cx="165" cy="139.4" r="3.9336874660865595" fill="#314A9A"/>
    <circle cx="164.2" cy="138.4" r="1.5734749864346236" fill="#ffffff" opacity="0.95"/>
    
  
        <circle cx="121" cy="149" r="6" fill="#ff8faf" opacity="0.65"/>
        <circle cx="179" cy="149" r="6" fill="#ff8faf" opacity="0.65"/>
        

  <path d="M 134 157 Q 150 167 166 157" stroke="#8A3A14" stroke-width="4" fill="none" stroke-linecap="round"/>
  <circle cx="126" cy="153" r="1.8" fill="#8A3A14" opacity="0.55"/>
  <circle cx="174" cy="153" r="1.8" fill="#8A3A14" opacity="0.55"/>
</svg>
