<svg xmlns="http://www.w3.org/2000/svg" width="300" height="300" viewBox="0 0 300 300" role="img" aria-label="Original cute monster 007">
  <defs>
    <radialGradient id="bg" cx="50%" cy="32%" r="72%">
      <stop offset="0%" stop-color="#ffffff"/>
      <stop offset="100%" stop-color="#f2f7ff"/>
    </radialGradient>
  </defs>

  <rect x="0" y="0" width="300" height="300" rx="24" fill="url(#bg)"/>
  <ellipse cx="150" cy="246" rx="78" ry="20" fill="#cad8f0" opacity="0.5"/>

  
        <path d="M 96 166 C 80 142, 82 198, 106 186" fill="#9B7BFF" opacity="0.85"/>
        <path d="M 205 166 C 221 142, 219 198, 195 186" fill="#9B7BFF" opacity="0.85"/>
        
  
        <ellipse cx="118" cy="134" rx="10" ry="14" fill="#C8B1FF" stroke="#45208A" stroke-width="3"/>
        <ellipse cx="183" cy="134" rx="10" ry="14" fill="#C8B1FF" stroke="#45208A" stroke-width="3"/>
        
  <path d="M 150 132 L 144 106 L 156 106 Z" fill="#9B7BFF" stroke="#45208A" stroke-width="3"/>
  <rect x="104" y="124" width="93" height="106" rx="37" fill="#C8B1FF" stroke="#45208A" stroke-width="4"/>
  <rect x="116" y="158" width="69" height="7" rx="3" fill="#9B7BFF" opacity="0.42"/>
        <rect x="116" y="174" width="69" height="7" rx="3" fill="#9B7BFF" opacity="0.42"/>
  
    <ellipse cx="112" cy="189.7" rx="8" ry="14" fill="#C8B1FF" stroke="#45208A" stroke-width="3"/>
    <ellipse cx="189" cy="189.7" rx="8" ry="14" fill="#C8B1FF" stroke="#45208A" stroke-width="3"/>
    
  
    <ellipse cx="128" cy="234" rx="13" ry="8" fill="#C8B1FF" stroke="#45208A" stroke-width="3"/>
    <ellipse cx="173" cy="234" rx="13" ry="8" fill="#C8B1FF" stroke="#45208A" stroke-width="3"/>
    

  
    <ellipse cx="136" cy="161" rx="7.230037520932973" ry="8.676045025119567" fill="#ffffff"/>
    <circle cx="136" cy="161.4" r="3.9765206365131354" fill="#2A2A2A"/>
    <circle cx="135.2" cy="160.4" r="1.590608254605254" fill="#ffffff" opacity="0.95"/>
    
  
    <ellipse cx="164" cy="161" rx="7.230037520932973" ry="8.676045025119567" fill="#ffffff"/>
    <circle cx="164" cy="161.4" r="3.9765206365131354" fill="#2A2A2A"/>
    <circle cx="163.2" cy="160.4" r="1.590608254605254" fill="#ffffff" opacity="0.95"/>
    
  
        <circle cx="122" cy="171" r="6" fill="#ff8faf" opacity="0.65"/>
        <circle cx="178" cy="171" r="6" fill="#ff8faf" opacity="0.65"/>
        

  <path d="M 134 179 Q 150 183 166 179" stroke="#45208A" stroke-width="4" fill="none" stroke-linecap="round"/>
  <circle cx="126" cy="175" r="1.8" fill="#45208A" opacity="0.55"/>
  <circle cx="174" cy="175" r="1.8" fill="#45208A" opacity="0.55"/>
</svg>
