<svg xmlns="http://www.w3.org/2000/svg" width="300" height="300" viewBox="0 0 300 300" role="img" aria-label="Original cute monster 035">
  <defs>
    <radialGradient id="bg" cx="50%" cy="32%" r="72%">
      <stop offset="0%" stop-color="#ffffff"/>
      <stop offset="100%" stop-color="#f2f7ff"/>
    </radialGradient>
  </defs>

  <rect x="0" y="0" width="300" height="300" rx="24" fill="url(#bg)"/>
  <ellipse cx="150" cy="246" rx="78" ry="20" fill="#cad8f0" opacity="0.5"/>

  
  
        <ellipse cx="109" cy="122" rx="10" ry="14" fill="#8EE6FF" stroke="#1E4C7A" stroke-width="3"/>
        <ellipse cx="192" cy="122" rx="10" ry="14" fill="#8EE6FF" stroke="#1E4C7A" stroke-width="3"/>
        
  
        <path d="M 123 122 C 115 94, 125 86, 135 82" stroke="#1E4C7A" stroke-width="3" fill="none"/>
        <circle cx="135" cy="82" r="4" fill="#5AB9FF"/>
        <path d="M 178 122 C 186 94, 176 86, 166 82" stroke="#1E4C7A" stroke-width="3" fill="none"/>
        <circle cx="166" cy="82" r="4" fill="#5AB9FF"/>
        
  <rect x="95" y="112" width="111" height="98" rx="33" fill="#8EE6FF" stroke="#1E4C7A" stroke-width="4"/>
  <ellipse cx="150" cy="186" rx="27" ry="16" fill="#ffffff" opacity="0.55"/>
  
    <ellipse cx="103" cy="172.8" rx="8" ry="14" fill="#8EE6FF" stroke="#1E4C7A" stroke-width="3"/>
    <ellipse cx="198" cy="172.8" rx="8" ry="14" fill="#8EE6FF" stroke="#1E4C7A" stroke-width="3"/>
    
  
    <ellipse cx="119" cy="214" rx="13" ry="8" fill="#8EE6FF" stroke="#1E4C7A" stroke-width="3"/>
    <ellipse cx="182" cy="214" rx="13" ry="8" fill="#8EE6FF" stroke="#1E4C7A" stroke-width="3"/>
    

  
    <ellipse cx="133" cy="146" rx="7.689020663596064" ry="9.226824796315276" fill="#ffffff"/>
    <circle cx="133" cy="146.4" r="4.2289613649778355" fill="#6E2D8A"/>
    <circle cx="132.2" cy="145.4" r="1.691584545991134" fill="#ffffff" opacity="0.95"/>
    
  
    <ellipse cx="167" cy="146" rx="7.689020663596064" ry="9.226824796315276" fill="#ffffff"/>
    <circle cx="167" cy="146.4" r="4.2289613649778355" fill="#6E2D8A"/>
    <circle cx="166.2" cy="145.4" r="1.691584545991134" fill="#ffffff" opacity="0.95"/>
    
  

  <path d="M 134 168 Q 150 172 166 168" stroke="#1E4C7A" stroke-width="4" fill="none" stroke-linecap="round"/>
  <circle cx="126" cy="164" r="1.8" fill="#1E4C7A" opacity="0.55"/>
  <circle cx="174" cy="164" r="1.8" fill="#1E4C7A" opacity="0.55"/>
</svg>
