<svg xmlns="http://www.w3.org/2000/svg" width="300" height="300" viewBox="0 0 300 300" role="img" aria-label="Original cute monster 057">
  <defs>
    <radialGradient id="bg" cx="50%" cy="32%" r="72%">
      <stop offset="0%" stop-color="#ffffff"/>
      <stop offset="100%" stop-color="#f2f7ff"/>
    </radialGradient>
  </defs>

  <rect x="0" y="0" width="300" height="300" rx="24" fill="url(#bg)"/>
  <ellipse cx="150" cy="246" rx="78" ry="20" fill="#cad8f0" opacity="0.5"/>

  
  
        <ellipse cx="109" cy="129" rx="10" ry="14" fill="#C8B1FF" stroke="#45208A" stroke-width="3"/>
        <ellipse cx="192" cy="129" rx="10" ry="14" fill="#C8B1FF" stroke="#45208A" stroke-width="3"/>
        
  
  <rect x="95" y="119" width="111" height="122" rx="33" fill="#C8B1FF" stroke="#45208A" stroke-width="4"/>
  <ellipse cx="150" cy="217" rx="27" ry="20" fill="#ffffff" opacity="0.55"/>
  
    <ellipse cx="103" cy="194.6" rx="8" ry="14" fill="#C8B1FF" stroke="#45208A" stroke-width="3"/>
    <ellipse cx="198" cy="194.6" rx="8" ry="14" fill="#C8B1FF" stroke="#45208A" stroke-width="3"/>
    
  
    <ellipse cx="119" cy="245" rx="13" ry="8" fill="#C8B1FF" stroke="#45208A" stroke-width="3"/>
    <ellipse cx="182" cy="245" rx="13" ry="8" fill="#C8B1FF" stroke="#45208A" stroke-width="3"/>
    

  
    <ellipse cx="134" cy="161" rx="8.516209750854483" ry="10.21945170102538" fill="#ffffff"/>
    <circle cx="134" cy="161.4" r="4.683915362969966" fill="#6E2D8A"/>
    <circle cx="133.2" cy="160.4" r="1.8735661451879861" fill="#ffffff" opacity="0.95"/>
    
  
    <ellipse cx="166" cy="161" rx="8.516209750854483" ry="10.21945170102538" fill="#ffffff"/>
    <circle cx="166" cy="161.4" r="4.683915362969966" fill="#6E2D8A"/>
    <circle cx="165.2" cy="160.4" r="1.8735661451879861" fill="#ffffff" opacity="0.95"/>
    
  

  <path d="M 134 180 Q 150 190 166 180" stroke="#45208A" stroke-width="4" fill="none" stroke-linecap="round"/>
  <circle cx="126" cy="176" r="1.8" fill="#45208A" opacity="0.55"/>
  <circle cx="174" cy="176" r="1.8" fill="#45208A" opacity="0.55"/>
</svg>
