<svg xmlns="http://www.w3.org/2000/svg" width="300" height="300" viewBox="0 0 300 300" role="img" aria-label="Original cute monster 093">
  <defs>
    <radialGradient id="bg" cx="50%" cy="32%" r="72%">
      <stop offset="0%" stop-color="#ffffff"/>
      <stop offset="100%" stop-color="#f2f7ff"/>
    </radialGradient>
  </defs>

  <rect x="0" y="0" width="300" height="300" rx="24" fill="url(#bg)"/>
  <ellipse cx="150" cy="246" rx="78" ry="20" fill="#cad8f0" opacity="0.5"/>

  
        <path d="M 99 144 C 83 120, 85 176, 109 164" fill="#FF71B8" opacity="0.85"/>
        <path d="M 201 144 C 217 120, 215 176, 191 164" fill="#FF71B8" opacity="0.85"/>
        
  
        <path d="M 125 120 C 105 94, 117 78, 131 110" fill="#FF9FD2" stroke="#7A2350" stroke-width="3"/>
        <path d="M 175 120 C 195 94, 183 78, 169 110" fill="#FF9FD2" stroke="#7A2350" stroke-width="3"/>
        
  
        <path d="M 141 114 L 133 88 L 147 104 Z" fill="#FF71B8" stroke="#7A2350" stroke-width="3"/>
        <path d="M 159 114 L 167 88 L 153 104 Z" fill="#FF71B8" stroke="#7A2350" stroke-width="3"/>
        
  <rect x="107" y="102" width="86" height="112" rx="30" fill="#FF9FD2" stroke="#7A2350" stroke-width="4"/>
  <rect x="119" y="136" width="62" height="7" rx="3" fill="#FF71B8" opacity="0.42"/>
        <rect x="119" y="152" width="62" height="7" rx="3" fill="#FF71B8" opacity="0.42"/>
  
    <ellipse cx="115" cy="171.4" rx="8" ry="14" fill="#FF9FD2" stroke="#7A2350" stroke-width="3"/>
    <ellipse cx="185" cy="171.4" rx="8" ry="14" fill="#FF9FD2" stroke="#7A2350" stroke-width="3"/>
    
  
    <ellipse cx="131" cy="218" rx="13" ry="8" fill="#FF9FD2" stroke="#7A2350" stroke-width="3"/>
    <ellipse cx="169" cy="218" rx="13" ry="8" fill="#FF9FD2" stroke="#7A2350" stroke-width="3"/>
    

  
    <ellipse cx="135" cy="141" rx="8.502495244360825" ry="10.202994293232988" fill="#ffffff"/>
    <circle cx="135" cy="141.4" r="4.676372384398454" fill="#6E2D8A"/>
    <circle cx="134.2" cy="140.4" r="1.8705489537593813" fill="#ffffff" opacity="0.95"/>
    
  
    <ellipse cx="165" cy="141" rx="8.502495244360825" ry="10.202994293232988" fill="#ffffff"/>
    <circle cx="165" cy="141.4" r="4.676372384398454" fill="#6E2D8A"/>
    <circle cx="164.2" cy="140.4" r="1.8705489537593813" fill="#ffffff" opacity="0.95"/>
    
  

  <path d="M 134 165 Q 150 172 166 165" stroke="#7A2350" stroke-width="4" fill="none" stroke-linecap="round"/>
  <circle cx="126" cy="161" r="1.8" fill="#7A2350" opacity="0.55"/>
  <circle cx="174" cy="161" r="1.8" fill="#7A2350" opacity="0.55"/>
</svg>
