<svg xmlns="http://www.w3.org/2000/svg" width="300" height="300" viewBox="0 0 300 300" role="img" aria-label="Original cute monster 038">
  <defs>
    <radialGradient id="bg" cx="50%" cy="32%" r="72%">
      <stop offset="0%" stop-color="#ffffff"/>
      <stop offset="100%" stop-color="#f2f7ff"/>
    </radialGradient>
  </defs>

  <rect x="0" y="0" width="300" height="300" rx="24" fill="url(#bg)"/>
  <ellipse cx="150" cy="246" rx="78" ry="20" fill="#cad8f0" opacity="0.5"/>

  
  
  
        <path d="M 133 118 C 125 90, 135 82, 145 78" stroke="#1C6B62" stroke-width="3" fill="none"/>
        <circle cx="145" cy="78" r="4" fill="#62D9C9"/>
        <path d="M 167 118 C 175 90, 165 82, 155 78" stroke="#1C6B62" stroke-width="3" fill="none"/>
        <circle cx="155" cy="78" r="4" fill="#62D9C9"/>
        
  <rect x="105" y="108" width="90" height="114" rx="30" fill="#B8F4ED" stroke="#1C6B62" stroke-width="4"/>
  <ellipse cx="150" cy="198" rx="22" ry="19" fill="#ffffff" opacity="0.55"/>
  
    <ellipse cx="113" cy="178.7" rx="8" ry="14" fill="#B8F4ED" stroke="#1C6B62" stroke-width="3"/>
    <ellipse cx="187" cy="178.7" rx="8" ry="14" fill="#B8F4ED" stroke="#1C6B62" stroke-width="3"/>
    
  
    <ellipse cx="129" cy="226" rx="13" ry="8" fill="#B8F4ED" stroke="#1C6B62" stroke-width="3"/>
    <ellipse cx="171" cy="226" rx="13" ry="8" fill="#B8F4ED" stroke="#1C6B62" stroke-width="3"/>
    

  
    <ellipse cx="132" cy="147" rx="6.466359066399835" ry="7.7596308796798015" fill="#ffffff"/>
    <circle cx="132" cy="147.4" r="3.5564974865199095" fill="#2A2A2A"/>
    <circle cx="131.2" cy="146.4" r="1.4225989946079636" fill="#ffffff" opacity="0.95"/>
    
  
    <ellipse cx="168" cy="147" rx="6.466359066399835" ry="7.7596308796798015" fill="#ffffff"/>
    <circle cx="168" cy="147.4" r="3.5564974865199095" fill="#2A2A2A"/>
    <circle cx="167.2" cy="146.4" r="1.4225989946079636" fill="#ffffff" opacity="0.95"/>
    
  
        <circle cx="118" cy="157" r="6" fill="#ff8faf" opacity="0.65"/>
        <circle cx="182" cy="157" r="6" fill="#ff8faf" opacity="0.65"/>
        

  <path d="M 134 172 Q 150 182 166 172" stroke="#1C6B62" stroke-width="4" fill="none" stroke-linecap="round"/>
  <circle cx="126" cy="168" r="1.8" fill="#1C6B62" opacity="0.55"/>
  <circle cx="174" cy="168" r="1.8" fill="#1C6B62" opacity="0.55"/>
</svg>
