<svg xmlns="http://www.w3.org/2000/svg" width="300" height="300" viewBox="0 0 300 300" role="img" aria-label="Original cute monster 042">
  <defs>
    <radialGradient id="bg" cx="50%" cy="32%" r="72%">
      <stop offset="0%" stop-color="#ffffff"/>
      <stop offset="100%" stop-color="#f2f7ff"/>
    </radialGradient>
  </defs>

  <rect x="0" y="0" width="300" height="300" rx="24" fill="url(#bg)"/>
  <ellipse cx="150" cy="246" rx="78" ry="20" fill="#cad8f0" opacity="0.5"/>

  
  
        <path d="M 113 121 L 105 95 L 125 117 Z" fill="#8EE6FF" stroke="#1E4C7A" stroke-width="3"/>
        <path d="M 187 121 L 195 95 L 175 117 Z" fill="#8EE6FF" stroke="#1E4C7A" stroke-width="3"/>
        
  <path d="M 150 111 L 144 85 L 156 85 Z" fill="#5AB9FF" stroke="#1E4C7A" stroke-width="3"/>
  <rect x="97" y="103" width="106" height="115" rx="26" fill="#8EE6FF" stroke="#1E4C7A" stroke-width="4"/>
  <circle cx="120" cy="158" r="9" fill="#5AB9FF" opacity="0.45"/>
        <circle cx="157" cy="183" r="5" fill="#5AB9FF" opacity="0.45"/>
        <circle cx="122" cy="163" r="7" fill="#5AB9FF" opacity="0.45"/>
        <circle cx="149" cy="153" r="6" fill="#5AB9FF" opacity="0.45"/>
  
    <ellipse cx="105" cy="174.3" rx="8" ry="14" fill="#8EE6FF" stroke="#1E4C7A" stroke-width="3"/>
    <ellipse cx="195" cy="174.3" rx="8" ry="14" fill="#8EE6FF" stroke="#1E4C7A" stroke-width="3"/>
    
  
    <ellipse cx="121" cy="222" rx="13" ry="8" fill="#8EE6FF" stroke="#1E4C7A" stroke-width="3"/>
    <ellipse cx="179" cy="222" rx="13" ry="8" fill="#8EE6FF" stroke="#1E4C7A" stroke-width="3"/>
    

  
    <ellipse cx="132" cy="143" rx="8.541320462588113" ry="10.249584555105734" fill="#ffffff"/>
    <circle cx="132" cy="143.4" r="4.697726254423462" fill="#2F6B2A"/>
    <circle cx="131.2" cy="142.4" r="1.8790905017693849" fill="#ffffff" opacity="0.95"/>
    
  
    <ellipse cx="168" cy="143" rx="8.541320462588113" ry="10.249584555105734" fill="#ffffff"/>
    <circle cx="168" cy="143.4" r="4.697726254423462" fill="#2F6B2A"/>
    <circle cx="167.2" cy="142.4" r="1.8790905017693849" fill="#ffffff" opacity="0.95"/>
    
  

  <path d="M 134 168 Q 150 178 166 168" stroke="#1E4C7A" stroke-width="4" fill="none" stroke-linecap="round"/>
  <circle cx="126" cy="164" r="1.8" fill="#1E4C7A" opacity="0.55"/>
  <circle cx="174" cy="164" r="1.8" fill="#1E4C7A" opacity="0.55"/>
</svg>
