<svg xmlns="http://www.w3.org/2000/svg" width="300" height="300" viewBox="0 0 300 300" role="img" aria-label="Original cute monster 094">
  <defs>
    <radialGradient id="bg" cx="50%" cy="32%" r="72%">
      <stop offset="0%" stop-color="#ffffff"/>
      <stop offset="100%" stop-color="#f2f7ff"/>
    </radialGradient>
  </defs>

  <rect x="0" y="0" width="300" height="300" rx="24" fill="url(#bg)"/>
  <ellipse cx="150" cy="246" rx="78" ry="20" fill="#cad8f0" opacity="0.5"/>

  
        <path d="M 89 151 C 73 127, 75 183, 99 171" fill="#FF9B63" opacity="0.85"/>
        <path d="M 211 151 C 227 127, 225 183, 201 171" fill="#FF9B63" opacity="0.85"/>
        
  
        <ellipse cx="111" cy="119" rx="10" ry="14" fill="#FFD1A9" stroke="#8A3A14" stroke-width="3"/>
        <ellipse cx="189" cy="119" rx="10" ry="14" fill="#FFD1A9" stroke="#8A3A14" stroke-width="3"/>
        
  <path d="M 150 117 L 144 91 L 156 91 Z" fill="#FF9B63" stroke="#8A3A14" stroke-width="3"/>
  <rect x="97" y="109" width="106" height="107" rx="27" fill="#FFD1A9" stroke="#8A3A14" stroke-width="4"/>
  <rect x="109" y="143" width="82" height="7" rx="3" fill="#FF9B63" opacity="0.42"/>
        <rect x="109" y="159" width="82" height="7" rx="3" fill="#FF9B63" opacity="0.42"/>
  
    <ellipse cx="105" cy="175.3" rx="8" ry="14" fill="#FFD1A9" stroke="#8A3A14" stroke-width="3"/>
    <ellipse cx="195" cy="175.3" rx="8" ry="14" fill="#FFD1A9" stroke="#8A3A14" stroke-width="3"/>
    
  
    <ellipse cx="121" cy="220" rx="13" ry="8" fill="#FFD1A9" stroke="#8A3A14" stroke-width="3"/>
    <ellipse cx="179" cy="220" rx="13" ry="8" fill="#FFD1A9" stroke="#8A3A14" stroke-width="3"/>
    

  
    <ellipse cx="135" cy="146" rx="7.011563803744086" ry="8.413876564492902" fill="#ffffff"/>
    <circle cx="135" cy="146.4" r="3.856360092059248" fill="#2F6B2A"/>
    <circle cx="134.2" cy="145.4" r="1.542544036823699" fill="#ffffff" opacity="0.95"/>
    
  
    <ellipse cx="165" cy="146" rx="7.011563803744086" ry="8.413876564492902" fill="#ffffff"/>
    <circle cx="165" cy="146.4" r="3.856360092059248" fill="#2F6B2A"/>
    <circle cx="164.2" cy="145.4" r="1.542544036823699" fill="#ffffff" opacity="0.95"/>
    
  
        <circle cx="121" cy="156" r="6" fill="#ff8faf" opacity="0.65"/>
        <circle cx="179" cy="156" r="6" fill="#ff8faf" opacity="0.65"/>
        

  <path d="M 134 166 Q 150 173 166 166" stroke="#8A3A14" stroke-width="4" fill="none" stroke-linecap="round"/>
  <circle cx="126" cy="162" r="1.8" fill="#8A3A14" opacity="0.55"/>
  <circle cx="174" cy="162" r="1.8" fill="#8A3A14" opacity="0.55"/>
</svg>
