<svg xmlns="http://www.w3.org/2000/svg" width="300" height="300" viewBox="0 0 300 300" role="img" aria-label="Original cute monster 072">
  <defs>
    <radialGradient id="bg" cx="50%" cy="32%" r="72%">
      <stop offset="0%" stop-color="#ffffff"/>
      <stop offset="100%" stop-color="#f2f7ff"/>
    </radialGradient>
  </defs>

  <rect x="0" y="0" width="300" height="300" rx="24" fill="url(#bg)"/>
  <ellipse cx="150" cy="246" rx="78" ry="20" fill="#cad8f0" opacity="0.5"/>

  
  
        <path d="M 115 126 L 107 100 L 127 122 Z" fill="#C8B1FF" stroke="#45208A" stroke-width="3"/>
        <path d="M 185 126 L 193 100 L 173 122 Z" fill="#C8B1FF" stroke="#45208A" stroke-width="3"/>
        
  <path d="M 150 116 L 144 90 L 156 90 Z" fill="#9B7BFF" stroke="#45208A" stroke-width="3"/>
  <rect x="99" y="108" width="102" height="89" rx="35" fill="#C8B1FF" stroke="#45208A" stroke-width="4"/>
  
  
    <ellipse cx="107" cy="163.2" rx="8" ry="14" fill="#C8B1FF" stroke="#45208A" stroke-width="3"/>
    <ellipse cx="193" cy="163.2" rx="8" ry="14" fill="#C8B1FF" stroke="#45208A" stroke-width="3"/>
    
  
    <ellipse cx="123" cy="201" rx="13" ry="8" fill="#C8B1FF" stroke="#45208A" stroke-width="3"/>
    <ellipse cx="177" cy="201" rx="13" ry="8" fill="#C8B1FF" stroke="#45208A" stroke-width="3"/>
    

  
    <ellipse cx="134" cy="139" rx="8.085274996626525" ry="9.70232999595183" fill="#ffffff"/>
    <circle cx="134" cy="139.4" r="4.44690124814459" fill="#2F6B2A"/>
    <circle cx="133.2" cy="138.4" r="1.7787604992578356" fill="#ffffff" opacity="0.95"/>
    
  
    <ellipse cx="166" cy="139" rx="8.085274996626525" ry="9.70232999595183" fill="#ffffff"/>
    <circle cx="166" cy="139.4" r="4.44690124814459" fill="#2F6B2A"/>
    <circle cx="165.2" cy="138.4" r="1.7787604992578356" fill="#ffffff" opacity="0.95"/>
    
  

  <path d="M 134 164 Q 150 174 166 164" stroke="#45208A" stroke-width="4" fill="none" stroke-linecap="round"/>
  <circle cx="126" cy="160" r="1.8" fill="#45208A" opacity="0.55"/>
  <circle cx="174" cy="160" r="1.8" fill="#45208A" opacity="0.55"/>
</svg>
