<svg xmlns="http://www.w3.org/2000/svg" width="300" height="300" viewBox="0 0 300 300" role="img" aria-label="Original cute monster 022">
  <defs>
    <radialGradient id="bg" cx="50%" cy="32%" r="72%">
      <stop offset="0%" stop-color="#ffffff"/>
      <stop offset="100%" stop-color="#f2f7ff"/>
    </radialGradient>
  </defs>

  <rect x="0" y="0" width="300" height="300" rx="24" fill="url(#bg)"/>
  <ellipse cx="150" cy="246" rx="78" ry="20" fill="#cad8f0" opacity="0.5"/>

  
        <ellipse cx="100" cy="152" rx="12" ry="20" fill="#76D46B" opacity="0.85"/>
        <ellipse cx="200" cy="152" rx="12" ry="20" fill="#76D46B" opacity="0.85"/>
        
  
        <path d="M 122 126 L 114 100 L 134 122 Z" fill="#B5F3A8" stroke="#2F6B2A" stroke-width="3"/>
        <path d="M 178 126 L 186 100 L 166 122 Z" fill="#B5F3A8" stroke="#2F6B2A" stroke-width="3"/>
        
  
        <path d="M 140 120 L 132 94 L 146 110 Z" fill="#76D46B" stroke="#2F6B2A" stroke-width="3"/>
        <path d="M 160 120 L 168 94 L 154 110 Z" fill="#76D46B" stroke="#2F6B2A" stroke-width="3"/>
        
  <rect x="106" y="108" width="88" height="97" rx="34" fill="#B5F3A8" stroke="#2F6B2A" stroke-width="4"/>
  <rect x="118" y="142" width="64" height="7" rx="3" fill="#76D46B" opacity="0.42"/>
        <rect x="118" y="158" width="64" height="7" rx="3" fill="#76D46B" opacity="0.42"/>
        <rect x="118" y="174" width="64" height="7" rx="3" fill="#76D46B" opacity="0.42"/>
  
    <ellipse cx="114" cy="168.1" rx="8" ry="14" fill="#B5F3A8" stroke="#2F6B2A" stroke-width="3"/>
    <ellipse cx="186" cy="168.1" rx="8" ry="14" fill="#B5F3A8" stroke="#2F6B2A" stroke-width="3"/>
    
  
    <ellipse cx="130" cy="209" rx="13" ry="8" fill="#B5F3A8" stroke="#2F6B2A" stroke-width="3"/>
    <ellipse cx="170" cy="209" rx="13" ry="8" fill="#B5F3A8" stroke="#2F6B2A" stroke-width="3"/>
    

  
    <ellipse cx="131" cy="141" rx="6.2988865794555515" ry="7.558663895346662" fill="#ffffff"/>
    <circle cx="131" cy="141.4" r="3.464387618700554" fill="#314A9A"/>
    <circle cx="130.2" cy="140.4" r="1.3857550474802214" fill="#ffffff" opacity="0.95"/>
    
  
    <ellipse cx="169" cy="141" rx="6.2988865794555515" ry="7.558663895346662" fill="#ffffff"/>
    <circle cx="169" cy="141.4" r="3.464387618700554" fill="#314A9A"/>
    <circle cx="168.2" cy="140.4" r="1.3857550474802214" fill="#ffffff" opacity="0.95"/>
    
  

  <path d="M 134 163 Q 150 173 166 163" stroke="#2F6B2A" stroke-width="4" fill="none" stroke-linecap="round"/>
  <circle cx="126" cy="159" r="1.8" fill="#2F6B2A" opacity="0.55"/>
  <circle cx="174" cy="159" r="1.8" fill="#2F6B2A" opacity="0.55"/>
</svg>
