<svg xmlns="http://www.w3.org/2000/svg" width="300" height="300" viewBox="0 0 300 300" role="img" aria-label="Original cute monster 028">
  <defs>
    <radialGradient id="bg" cx="50%" cy="32%" r="72%">
      <stop offset="0%" stop-color="#ffffff"/>
      <stop offset="100%" stop-color="#f2f7ff"/>
    </radialGradient>
  </defs>

  <rect x="0" y="0" width="300" height="300" rx="24" fill="url(#bg)"/>
  <ellipse cx="150" cy="246" rx="78" ry="20" fill="#cad8f0" opacity="0.5"/>

  
        <ellipse cx="88" cy="158" rx="12" ry="20" fill="#9B7BFF" opacity="0.85"/>
        <ellipse cx="212" cy="158" rx="12" ry="20" fill="#9B7BFF" opacity="0.85"/>
        
  
  
  <rect x="94" y="114" width="112" height="93" rx="35" fill="#C8B1FF" stroke="#45208A" stroke-width="4"/>
  <rect x="106" y="148" width="88" height="7" rx="3" fill="#9B7BFF" opacity="0.42"/>
        <rect x="106" y="164" width="88" height="7" rx="3" fill="#9B7BFF" opacity="0.42"/>
  
    <ellipse cx="102" cy="171.7" rx="8" ry="14" fill="#C8B1FF" stroke="#45208A" stroke-width="3"/>
    <ellipse cx="198" cy="171.7" rx="8" ry="14" fill="#C8B1FF" stroke="#45208A" stroke-width="3"/>
    
  
    <ellipse cx="118" cy="211" rx="13" ry="8" fill="#C8B1FF" stroke="#45208A" stroke-width="3"/>
    <ellipse cx="182" cy="211" rx="13" ry="8" fill="#C8B1FF" stroke="#45208A" stroke-width="3"/>
    

  
    <ellipse cx="133" cy="146" rx="8.067793169202663" ry="9.681351803043194" fill="#ffffff"/>
    <circle cx="133" cy="146.4" r="4.437286243061465" fill="#314A9A"/>
    <circle cx="132.2" cy="145.4" r="1.7749144972245858" fill="#ffffff" opacity="0.95"/>
    
  
    <ellipse cx="167" cy="146" rx="8.067793169202663" ry="9.681351803043194" fill="#ffffff"/>
    <circle cx="167" cy="146.4" r="4.437286243061465" fill="#314A9A"/>
    <circle cx="166.2" cy="145.4" r="1.7749144972245858" fill="#ffffff" opacity="0.95"/>
    
  
        <circle cx="119" cy="156" r="6" fill="#ff8faf" opacity="0.65"/>
        <circle cx="181" cy="156" r="6" fill="#ff8faf" opacity="0.65"/>
        

  <path d="M 134 163 Q 150 173 166 163" stroke="#45208A" stroke-width="4" fill="none" stroke-linecap="round"/>
  <circle cx="126" cy="159" r="1.8" fill="#45208A" opacity="0.55"/>
  <circle cx="174" cy="159" r="1.8" fill="#45208A" opacity="0.55"/>
</svg>
