<svg xmlns="http://www.w3.org/2000/svg" width="300" height="300" viewBox="0 0 300 300" role="img" aria-label="Original cute monster 067">
  <defs>
    <radialGradient id="bg" cx="50%" cy="32%" r="72%">
      <stop offset="0%" stop-color="#ffffff"/>
      <stop offset="100%" stop-color="#f2f7ff"/>
    </radialGradient>
  </defs>

  <rect x="0" y="0" width="300" height="300" rx="24" fill="url(#bg)"/>
  <ellipse cx="150" cy="246" rx="78" ry="20" fill="#cad8f0" opacity="0.5"/>

  
        <path d="M 97 146 C 81 122, 83 178, 107 166" fill="#F5C14E" opacity="0.85"/>
        <path d="M 203 146 C 219 122, 217 178, 193 166" fill="#F5C14E" opacity="0.85"/>
        
  
  
        <path d="M 139 116 L 131 90 L 145 106 Z" fill="#F5C14E" stroke="#7D5A14" stroke-width="3"/>
        <path d="M 161 116 L 169 90 L 155 106 Z" fill="#F5C14E" stroke="#7D5A14" stroke-width="3"/>
        
  <rect x="105" y="104" width="90" height="118" rx="36" fill="#FDE39A" stroke="#7D5A14" stroke-width="4"/>
  <circle cx="173" cy="166" r="6" fill="#F5C14E" opacity="0.45"/>
        <circle cx="150" cy="157" r="6" fill="#F5C14E" opacity="0.45"/>
        <circle cx="154" cy="198" r="6" fill="#F5C14E" opacity="0.45"/>
        <circle cx="160" cy="166" r="9" fill="#F5C14E" opacity="0.45"/>
        <circle cx="161" cy="179" r="10" fill="#F5C14E" opacity="0.45"/>
  
    <ellipse cx="113" cy="177.2" rx="8" ry="14" fill="#FDE39A" stroke="#7D5A14" stroke-width="3"/>
    <ellipse cx="187" cy="177.2" rx="8" ry="14" fill="#FDE39A" stroke="#7D5A14" stroke-width="3"/>
    
  
    <ellipse cx="129" cy="226" rx="13" ry="8" fill="#FDE39A" stroke="#7D5A14" stroke-width="3"/>
    <ellipse cx="171" cy="226" rx="13" ry="8" fill="#FDE39A" stroke="#7D5A14" stroke-width="3"/>
    

  
    <ellipse cx="130" cy="145" rx="6.323840885882544" ry="7.588609063059052" fill="#ffffff"/>
    <circle cx="130" cy="145.4" r="3.4781124872353995" fill="#7A3F14"/>
    <circle cx="129.2" cy="144.4" r="1.3912449948941596" fill="#ffffff" opacity="0.95"/>
    
  
    <ellipse cx="170" cy="145" rx="6.323840885882544" ry="7.588609063059052" fill="#ffffff"/>
    <circle cx="170" cy="145.4" r="3.4781124872353995" fill="#7A3F14"/>
    <circle cx="169.2" cy="144.4" r="1.3912449948941596" fill="#ffffff" opacity="0.95"/>
    
  
        <circle cx="116" cy="155" r="6" fill="#ff8faf" opacity="0.65"/>
        <circle cx="184" cy="155" r="6" fill="#ff8faf" opacity="0.65"/>
        

  <path d="M 134 167 Q 150 177 166 167" stroke="#7D5A14" stroke-width="4" fill="none" stroke-linecap="round"/>
  <circle cx="126" cy="163" r="1.8" fill="#7D5A14" opacity="0.55"/>
  <circle cx="174" cy="163" r="1.8" fill="#7D5A14" opacity="0.55"/>
</svg>
