<svg xmlns="http://www.w3.org/2000/svg" width="300" height="300" viewBox="0 0 300 300" role="img" aria-label="Original cute monster 059">
  <defs>
    <radialGradient id="bg" cx="50%" cy="32%" r="72%">
      <stop offset="0%" stop-color="#ffffff"/>
      <stop offset="100%" stop-color="#f2f7ff"/>
    </radialGradient>
  </defs>

  <rect x="0" y="0" width="300" height="300" rx="24" fill="url(#bg)"/>
  <ellipse cx="150" cy="246" rx="78" ry="20" fill="#cad8f0" opacity="0.5"/>

  
        <path d="M 98 168 C 82 144, 84 200, 108 188" fill="#9B7BFF" opacity="0.85"/>
        <path d="M 202 168 C 218 144, 216 200, 192 188" fill="#9B7BFF" opacity="0.85"/>
        
  
        <ellipse cx="120" cy="136" rx="10" ry="14" fill="#C8B1FF" stroke="#45208A" stroke-width="3"/>
        <ellipse cx="180" cy="136" rx="10" ry="14" fill="#C8B1FF" stroke="#45208A" stroke-width="3"/>
        
  
        <path d="M 134 136 C 126 108, 136 100, 146 96" stroke="#45208A" stroke-width="3" fill="none"/>
        <circle cx="146" cy="96" r="4" fill="#9B7BFF"/>
        <path d="M 166 136 C 174 108, 164 100, 154 96" stroke="#45208A" stroke-width="3" fill="none"/>
        <circle cx="154" cy="96" r="4" fill="#9B7BFF"/>
        
  <rect x="106" y="126" width="88" height="90" rx="34" fill="#C8B1FF" stroke="#45208A" stroke-width="4"/>
  <rect x="118" y="160" width="64" height="7" rx="3" fill="#9B7BFF" opacity="0.42"/>
        <rect x="118" y="176" width="64" height="7" rx="3" fill="#9B7BFF" opacity="0.42"/>
        <rect x="118" y="192" width="64" height="7" rx="3" fill="#9B7BFF" opacity="0.42"/>
        <rect x="118" y="208" width="64" height="7" rx="3" fill="#9B7BFF" opacity="0.42"/>
  
    <ellipse cx="114" cy="181.8" rx="8" ry="14" fill="#C8B1FF" stroke="#45208A" stroke-width="3"/>
    <ellipse cx="186" cy="181.8" rx="8" ry="14" fill="#C8B1FF" stroke="#45208A" stroke-width="3"/>
    
  
    <ellipse cx="130" cy="220" rx="13" ry="8" fill="#C8B1FF" stroke="#45208A" stroke-width="3"/>
    <ellipse cx="170" cy="220" rx="13" ry="8" fill="#C8B1FF" stroke="#45208A" stroke-width="3"/>
    

  
    <ellipse cx="131" cy="157" rx="6.501280507647509" ry="7.801536609177011" fill="#ffffff"/>
    <circle cx="131" cy="157.4" r="3.57570427920613" fill="#2F6B2A"/>
    <circle cx="130.2" cy="156.4" r="1.430281711682452" fill="#ffffff" opacity="0.95"/>
    
  
    <ellipse cx="169" cy="157" rx="6.501280507647509" ry="7.801536609177011" fill="#ffffff"/>
    <circle cx="169" cy="157.4" r="3.57570427920613" fill="#2F6B2A"/>
    <circle cx="168.2" cy="156.4" r="1.430281711682452" fill="#ffffff" opacity="0.95"/>
    
  
        <circle cx="117" cy="167" r="6" fill="#ff8faf" opacity="0.65"/>
        <circle cx="183" cy="167" r="6" fill="#ff8faf" opacity="0.65"/>
        

  <path d="M 134 175 Q 150 179 166 175" stroke="#45208A" stroke-width="4" fill="none" stroke-linecap="round"/>
  <circle cx="126" cy="171" r="1.8" fill="#45208A" opacity="0.55"/>
  <circle cx="174" cy="171" r="1.8" fill="#45208A" opacity="0.55"/>
</svg>
