<svg xmlns="http://www.w3.org/2000/svg" width="300" height="300" viewBox="0 0 300 300" role="img" aria-label="Original cute monster 063">
  <defs>
    <radialGradient id="bg" cx="50%" cy="32%" r="72%">
      <stop offset="0%" stop-color="#ffffff"/>
      <stop offset="100%" stop-color="#f2f7ff"/>
    </radialGradient>
  </defs>

  <rect x="0" y="0" width="300" height="300" rx="24" fill="url(#bg)"/>
  <ellipse cx="150" cy="246" rx="78" ry="20" fill="#cad8f0" opacity="0.5"/>

  
  
        <path d="M 122 137 C 102 111, 114 95, 128 127" fill="#FFD1A9" stroke="#8A3A14" stroke-width="3"/>
        <path d="M 178 137 C 198 111, 186 95, 172 127" fill="#FFD1A9" stroke="#8A3A14" stroke-width="3"/>
        
  
  <rect x="104" y="119" width="92" height="114" rx="31" fill="#FFD1A9" stroke="#8A3A14" stroke-width="4"/>
  
  
    <ellipse cx="112" cy="189.7" rx="8" ry="14" fill="#FFD1A9" stroke="#8A3A14" stroke-width="3"/>
    <ellipse cx="188" cy="189.7" rx="8" ry="14" fill="#FFD1A9" stroke="#8A3A14" stroke-width="3"/>
    
  
    <ellipse cx="128" cy="237" rx="13" ry="8" fill="#FFD1A9" stroke="#8A3A14" stroke-width="3"/>
    <ellipse cx="172" cy="237" rx="13" ry="8" fill="#FFD1A9" stroke="#8A3A14" stroke-width="3"/>
    

  
    <ellipse cx="136" cy="158" rx="7.22794776166779" ry="8.673537314001347" fill="#ffffff"/>
    <circle cx="136" cy="158.4" r="3.9753712689172844" fill="#314A9A"/>
    <circle cx="135.2" cy="157.4" r="1.5901485075669137" fill="#ffffff" opacity="0.95"/>
    
  
    <ellipse cx="164" cy="158" rx="7.22794776166779" ry="8.673537314001347" fill="#ffffff"/>
    <circle cx="164" cy="158.4" r="3.9753712689172844" fill="#314A9A"/>
    <circle cx="163.2" cy="157.4" r="1.5901485075669137" fill="#ffffff" opacity="0.95"/>
    
  
        <circle cx="122" cy="168" r="6" fill="#ff8faf" opacity="0.65"/>
        <circle cx="178" cy="168" r="6" fill="#ff8faf" opacity="0.65"/>
        

  <path d="M 134 180 Q 150 184 166 180" stroke="#8A3A14" stroke-width="4" fill="none" stroke-linecap="round"/>
  <circle cx="126" cy="176" r="1.8" fill="#8A3A14" opacity="0.55"/>
  <circle cx="174" cy="176" r="1.8" fill="#8A3A14" opacity="0.55"/>
</svg>
