<svg xmlns="http://www.w3.org/2000/svg" width="300" height="300" viewBox="0 0 300 300" role="img" aria-label="Original cute monster 084">
  <defs>
    <radialGradient id="bg" cx="50%" cy="32%" r="72%">
      <stop offset="0%" stop-color="#ffffff"/>
      <stop offset="100%" stop-color="#f2f7ff"/>
    </radialGradient>
  </defs>

  <rect x="0" y="0" width="300" height="300" rx="24" fill="url(#bg)"/>
  <ellipse cx="150" cy="246" rx="78" ry="20" fill="#cad8f0" opacity="0.5"/>

  
        <path d="M 91 164 C 75 140, 77 196, 101 184" fill="#FFB347" opacity="0.85"/>
        <path d="M 209 164 C 225 140, 223 196, 199 184" fill="#FFB347" opacity="0.85"/>
        
  
  
        <path d="M 133 134 L 125 108 L 139 124 Z" fill="#FFB347" stroke="#7B4B00" stroke-width="3"/>
        <path d="M 167 134 L 175 108 L 161 124 Z" fill="#FFB347" stroke="#7B4B00" stroke-width="3"/>
        
  <rect x="99" y="122" width="102" height="110" rx="38" fill="#FFD86B" stroke="#7B4B00" stroke-width="4"/>
  <ellipse cx="150" cy="208" rx="25" ry="18" fill="#ffffff" opacity="0.55"/>
  
    <ellipse cx="107" cy="190.2" rx="8" ry="14" fill="#FFD86B" stroke="#7B4B00" stroke-width="3"/>
    <ellipse cx="193" cy="190.2" rx="8" ry="14" fill="#FFD86B" stroke="#7B4B00" stroke-width="3"/>
    
  
    <ellipse cx="123" cy="236" rx="13" ry="8" fill="#FFD86B" stroke="#7B4B00" stroke-width="3"/>
    <ellipse cx="177" cy="236" rx="13" ry="8" fill="#FFD86B" stroke="#7B4B00" stroke-width="3"/>
    

  
    <ellipse cx="131" cy="160" rx="6.7958623217922245" ry="8.155034786150669" fill="#ffffff"/>
    <circle cx="131" cy="160.4" r="3.7377242769857237" fill="#7A3F14"/>
    <circle cx="130.2" cy="159.4" r="1.4950897107942893" fill="#ffffff" opacity="0.95"/>
    
  
    <ellipse cx="169" cy="160" rx="6.7958623217922245" ry="8.155034786150669" fill="#ffffff"/>
    <circle cx="169" cy="160.4" r="3.7377242769857237" fill="#7A3F14"/>
    <circle cx="168.2" cy="159.4" r="1.4950897107942893" fill="#ffffff" opacity="0.95"/>
    
  

  <path d="M 134 184 Q 150 194 166 184" stroke="#7B4B00" stroke-width="4" fill="none" stroke-linecap="round"/>
  <circle cx="126" cy="180" r="1.8" fill="#7B4B00" opacity="0.55"/>
  <circle cx="174" cy="180" r="1.8" fill="#7B4B00" opacity="0.55"/>
</svg>
