<svg xmlns="http://www.w3.org/2000/svg" width="300" height="300" viewBox="0 0 300 300" role="img" aria-label="Original cute monster 039">
  <defs>
    <radialGradient id="bg" cx="50%" cy="32%" r="72%">
      <stop offset="0%" stop-color="#ffffff"/>
      <stop offset="100%" stop-color="#f2f7ff"/>
    </radialGradient>
  </defs>

  <rect x="0" y="0" width="300" height="300" rx="24" fill="url(#bg)"/>
  <ellipse cx="150" cy="246" rx="78" ry="20" fill="#cad8f0" opacity="0.5"/>

  
        <path d="M 97 156 C 81 132, 83 188, 107 176" fill="#5AB9FF" opacity="0.85"/>
        <path d="M 204 156 C 220 132, 218 188, 194 176" fill="#5AB9FF" opacity="0.85"/>
        
  
        <path d="M 123 132 C 103 106, 115 90, 129 122" fill="#8EE6FF" stroke="#1E4C7A" stroke-width="3"/>
        <path d="M 178 132 C 198 106, 186 90, 172 122" fill="#8EE6FF" stroke="#1E4C7A" stroke-width="3"/>
        
  
        <path d="M 139 126 L 131 100 L 145 116 Z" fill="#5AB9FF" stroke="#1E4C7A" stroke-width="3"/>
        <path d="M 162 126 L 170 100 L 156 116 Z" fill="#5AB9FF" stroke="#1E4C7A" stroke-width="3"/>
        
  <rect x="105" y="114" width="91" height="120" rx="26" fill="#8EE6FF" stroke="#1E4C7A" stroke-width="4"/>
  <ellipse cx="150" cy="210" rx="22" ry="20" fill="#ffffff" opacity="0.55"/>
  
    <ellipse cx="113" cy="188.4" rx="8" ry="14" fill="#8EE6FF" stroke="#1E4C7A" stroke-width="3"/>
    <ellipse cx="188" cy="188.4" rx="8" ry="14" fill="#8EE6FF" stroke="#1E4C7A" stroke-width="3"/>
    
  
    <ellipse cx="129" cy="238" rx="13" ry="8" fill="#8EE6FF" stroke="#1E4C7A" stroke-width="3"/>
    <ellipse cx="172" cy="238" rx="13" ry="8" fill="#8EE6FF" stroke="#1E4C7A" stroke-width="3"/>
    

  
    <ellipse cx="133" cy="156" rx="7.236426838886074" ry="8.683712206663289" fill="#ffffff"/>
    <circle cx="133" cy="156.4" r="3.980034761387341" fill="#7A3F14"/>
    <circle cx="132.2" cy="155.4" r="1.5920139045549364" fill="#ffffff" opacity="0.95"/>
    
  
    <ellipse cx="167" cy="156" rx="7.236426838886074" ry="8.683712206663289" fill="#ffffff"/>
    <circle cx="167" cy="156.4" r="3.980034761387341" fill="#7A3F14"/>
    <circle cx="166.2" cy="155.4" r="1.5920139045549364" fill="#ffffff" opacity="0.95"/>
    
  

  <path d="M 134 177 Q 150 187 166 177" stroke="#1E4C7A" stroke-width="4" fill="none" stroke-linecap="round"/>
  <circle cx="126" cy="173" r="1.8" fill="#1E4C7A" opacity="0.55"/>
  <circle cx="174" cy="173" r="1.8" fill="#1E4C7A" opacity="0.55"/>
</svg>
