<svg xmlns="http://www.w3.org/2000/svg" width="300" height="300" viewBox="0 0 300 300" role="img" aria-label="Original cute monster 023">
  <defs>
    <radialGradient id="bg" cx="50%" cy="32%" r="72%">
      <stop offset="0%" stop-color="#ffffff"/>
      <stop offset="100%" stop-color="#f2f7ff"/>
    </radialGradient>
  </defs>

  <rect x="0" y="0" width="300" height="300" rx="24" fill="url(#bg)"/>
  <ellipse cx="150" cy="246" rx="78" ry="20" fill="#cad8f0" opacity="0.5"/>

  
  
  <path d="M 150 127 L 144 101 L 156 101 Z" fill="#76D46B" stroke="#2F6B2A" stroke-width="3"/>
  <rect x="106" y="119" width="89" height="115" rx="26" fill="#B5F3A8" stroke="#2F6B2A" stroke-width="4"/>
  <circle cx="175" cy="211" r="7" fill="#76D46B" opacity="0.45"/>
        <circle cx="146" cy="153" r="8" fill="#76D46B" opacity="0.45"/>
        <circle cx="170" cy="177" r="7" fill="#76D46B" opacity="0.45"/>
        <circle cx="149" cy="146" r="7" fill="#76D46B" opacity="0.45"/>
  
    <ellipse cx="114" cy="190.3" rx="8" ry="14" fill="#B5F3A8" stroke="#2F6B2A" stroke-width="3"/>
    <ellipse cx="187" cy="190.3" rx="8" ry="14" fill="#B5F3A8" stroke="#2F6B2A" stroke-width="3"/>
    
  
    <ellipse cx="130" cy="238" rx="13" ry="8" fill="#B5F3A8" stroke="#2F6B2A" stroke-width="3"/>
    <ellipse cx="171" cy="238" rx="13" ry="8" fill="#B5F3A8" stroke="#2F6B2A" stroke-width="3"/>
    

  
    <ellipse cx="136" cy="159" rx="8.222822247810228" ry="9.867386697372273" fill="#ffffff"/>
    <circle cx="136" cy="159.4" r="4.522552236295626" fill="#2A2A2A"/>
    <circle cx="135.2" cy="158.4" r="1.8090208945182502" fill="#ffffff" opacity="0.95"/>
    
  
    <ellipse cx="164" cy="159" rx="8.222822247810228" ry="9.867386697372273" fill="#ffffff"/>
    <circle cx="164" cy="159.4" r="4.522552236295626" fill="#2A2A2A"/>
    <circle cx="163.2" cy="158.4" r="1.8090208945182502" fill="#ffffff" opacity="0.95"/>
    
  
        <circle cx="122" cy="169" r="6" fill="#ff8faf" opacity="0.65"/>
        <circle cx="178" cy="169" r="6" fill="#ff8faf" opacity="0.65"/>
        

  <path d="M 134 181 Q 150 185 166 181" stroke="#2F6B2A" stroke-width="4" fill="none" stroke-linecap="round"/>
  <circle cx="126" cy="177" r="1.8" fill="#2F6B2A" opacity="0.55"/>
  <circle cx="174" cy="177" r="1.8" fill="#2F6B2A" opacity="0.55"/>
</svg>
