<svg xmlns="http://www.w3.org/2000/svg" width="300" height="300" viewBox="0 0 300 300" role="img" aria-label="Original cute monster 014">
  <defs>
    <radialGradient id="bg" cx="50%" cy="32%" r="72%">
      <stop offset="0%" stop-color="#ffffff"/>
      <stop offset="100%" stop-color="#f2f7ff"/>
    </radialGradient>
  </defs>

  <rect x="0" y="0" width="300" height="300" rx="24" fill="url(#bg)"/>
  <ellipse cx="150" cy="246" rx="78" ry="20" fill="#cad8f0" opacity="0.5"/>

  
        <path d="M 95 168 C 79 144, 81 200, 105 188" fill="#9B7BFF" opacity="0.85"/>
        <path d="M 206 168 C 222 144, 220 200, 196 188" fill="#9B7BFF" opacity="0.85"/>
        
  
  
        <path d="M 137 138 L 129 112 L 143 128 Z" fill="#9B7BFF" stroke="#45208A" stroke-width="3"/>
        <path d="M 164 138 L 172 112 L 158 128 Z" fill="#9B7BFF" stroke="#45208A" stroke-width="3"/>
        
  <rect x="103" y="126" width="95" height="101" rx="40" fill="#C8B1FF" stroke="#45208A" stroke-width="4"/>
  <ellipse cx="150" cy="203" rx="23" ry="16" fill="#ffffff" opacity="0.55"/>
  
    <ellipse cx="111" cy="188.6" rx="8" ry="14" fill="#C8B1FF" stroke="#45208A" stroke-width="3"/>
    <ellipse cx="190" cy="188.6" rx="8" ry="14" fill="#C8B1FF" stroke="#45208A" stroke-width="3"/>
    
  
    <ellipse cx="127" cy="231" rx="13" ry="8" fill="#C8B1FF" stroke="#45208A" stroke-width="3"/>
    <ellipse cx="174" cy="231" rx="13" ry="8" fill="#C8B1FF" stroke="#45208A" stroke-width="3"/>
    

  
    <ellipse cx="134" cy="161" rx="7.286267131810434" ry="8.74352055817252" fill="#ffffff"/>
    <circle cx="134" cy="161.4" r="4.007446922495739" fill="#2A2A2A"/>
    <circle cx="133.2" cy="160.4" r="1.6029787689982955" fill="#ffffff" opacity="0.95"/>
    
  
    <ellipse cx="166" cy="161" rx="7.286267131810434" ry="8.74352055817252" fill="#ffffff"/>
    <circle cx="166" cy="161.4" r="4.007446922495739" fill="#2A2A2A"/>
    <circle cx="165.2" cy="160.4" r="1.6029787689982955" fill="#ffffff" opacity="0.95"/>
    
  
        <circle cx="120" cy="171" r="6" fill="#ff8faf" opacity="0.65"/>
        <circle cx="180" cy="171" r="6" fill="#ff8faf" opacity="0.65"/>
        

  <path d="M 134 185 Q 150 195 166 185" stroke="#45208A" stroke-width="4" fill="none" stroke-linecap="round"/>
  <circle cx="126" cy="181" r="1.8" fill="#45208A" opacity="0.55"/>
  <circle cx="174" cy="181" r="1.8" fill="#45208A" opacity="0.55"/>
</svg>
