<svg xmlns="http://www.w3.org/2000/svg" width="300" height="300" viewBox="0 0 300 300" role="img" aria-label="Original cute monster 089">
  <defs>
    <radialGradient id="bg" cx="50%" cy="32%" r="72%">
      <stop offset="0%" stop-color="#ffffff"/>
      <stop offset="100%" stop-color="#f2f7ff"/>
    </radialGradient>
  </defs>

  <rect x="0" y="0" width="300" height="300" rx="24" fill="url(#bg)"/>
  <ellipse cx="150" cy="246" rx="78" ry="20" fill="#cad8f0" opacity="0.5"/>

  
        <path d="M 95 164 C 79 140, 81 196, 105 184" fill="#F5C14E" opacity="0.85"/>
        <path d="M 205 164 C 221 140, 219 196, 195 184" fill="#F5C14E" opacity="0.85"/>
        
  
  
  <rect x="103" y="122" width="94" height="106" rx="36" fill="#FDE39A" stroke="#7D5A14" stroke-width="4"/>
  <ellipse cx="150" cy="204" rx="23" ry="17" fill="#ffffff" opacity="0.55"/>
  
    <ellipse cx="111" cy="187.7" rx="8" ry="14" fill="#FDE39A" stroke="#7D5A14" stroke-width="3"/>
    <ellipse cx="189" cy="187.7" rx="8" ry="14" fill="#FDE39A" stroke="#7D5A14" stroke-width="3"/>
    
  
    <ellipse cx="127" cy="232" rx="13" ry="8" fill="#FDE39A" stroke="#7D5A14" stroke-width="3"/>
    <ellipse cx="173" cy="232" rx="13" ry="8" fill="#FDE39A" stroke="#7D5A14" stroke-width="3"/>
    

  
    <ellipse cx="134" cy="159" rx="7.76458811767797" ry="9.317505741213564" fill="#ffffff"/>
    <circle cx="134" cy="159.4" r="4.270523464722884" fill="#2A2A2A"/>
    <circle cx="133.2" cy="158.4" r="1.7082093858891534" fill="#ffffff" opacity="0.95"/>
    
  
    <ellipse cx="166" cy="159" rx="7.76458811767797" ry="9.317505741213564" fill="#ffffff"/>
    <circle cx="166" cy="159.4" r="4.270523464722884" fill="#2A2A2A"/>
    <circle cx="165.2" cy="158.4" r="1.7082093858891534" fill="#ffffff" opacity="0.95"/>
    
  
        <circle cx="120" cy="169" r="6" fill="#ff8faf" opacity="0.65"/>
        <circle cx="180" cy="169" r="6" fill="#ff8faf" opacity="0.65"/>
        

  <path d="M 134 180 Q 150 187 166 180" stroke="#7D5A14" stroke-width="4" fill="none" stroke-linecap="round"/>
  <circle cx="126" cy="176" r="1.8" fill="#7D5A14" opacity="0.55"/>
  <circle cx="174" cy="176" r="1.8" fill="#7D5A14" opacity="0.55"/>
</svg>
