<svg xmlns="http://www.w3.org/2000/svg" width="300" height="300" viewBox="0 0 300 300" role="img" aria-label="Original cute monster 025">
  <defs>
    <radialGradient id="bg" cx="50%" cy="32%" r="72%">
      <stop offset="0%" stop-color="#ffffff"/>
      <stop offset="100%" stop-color="#f2f7ff"/>
    </radialGradient>
  </defs>

  <rect x="0" y="0" width="300" height="300" rx="24" fill="url(#bg)"/>
  <ellipse cx="150" cy="246" rx="78" ry="20" fill="#cad8f0" opacity="0.5"/>

  
        <ellipse cx="87" cy="169" rx="12" ry="20" fill="#FF9B63" opacity="0.85"/>
        <ellipse cx="213" cy="169" rx="12" ry="20" fill="#FF9B63" opacity="0.85"/>
        
  
        <path d="M 109 143 L 101 117 L 121 139 Z" fill="#FFD1A9" stroke="#8A3A14" stroke-width="3"/>
        <path d="M 191 143 L 199 117 L 179 139 Z" fill="#FFD1A9" stroke="#8A3A14" stroke-width="3"/>
        
  <path d="M 150 133 L 144 107 L 156 107 Z" fill="#FF9B63" stroke="#8A3A14" stroke-width="3"/>
  <rect x="93" y="125" width="114" height="103" rx="27" fill="#FFD1A9" stroke="#8A3A14" stroke-width="4"/>
  
  
    <ellipse cx="101" cy="188.9" rx="8" ry="14" fill="#FFD1A9" stroke="#8A3A14" stroke-width="3"/>
    <ellipse cx="199" cy="188.9" rx="8" ry="14" fill="#FFD1A9" stroke="#8A3A14" stroke-width="3"/>
    
  
    <ellipse cx="117" cy="232" rx="13" ry="8" fill="#FFD1A9" stroke="#8A3A14" stroke-width="3"/>
    <ellipse cx="183" cy="232" rx="13" ry="8" fill="#FFD1A9" stroke="#8A3A14" stroke-width="3"/>
    

  
    <ellipse cx="131" cy="161" rx="7.226120928748983" ry="8.671345114498779" fill="#ffffff"/>
    <circle cx="131" cy="161.4" r="3.974366510811941" fill="#2A2A2A"/>
    <circle cx="130.2" cy="160.4" r="1.5897466043247763" fill="#ffffff" opacity="0.95"/>
    
  
    <ellipse cx="169" cy="161" rx="7.226120928748983" ry="8.671345114498779" fill="#ffffff"/>
    <circle cx="169" cy="161.4" r="3.974366510811941" fill="#2A2A2A"/>
    <circle cx="168.2" cy="160.4" r="1.5897466043247763" fill="#ffffff" opacity="0.95"/>
    
  
        <circle cx="117" cy="171" r="6" fill="#ff8faf" opacity="0.65"/>
        <circle cx="183" cy="171" r="6" fill="#ff8faf" opacity="0.65"/>
        

  <path d="M 134 184 Q 150 191 166 184" stroke="#8A3A14" stroke-width="4" fill="none" stroke-linecap="round"/>
  <circle cx="126" cy="180" r="1.8" fill="#8A3A14" opacity="0.55"/>
  <circle cx="174" cy="180" r="1.8" fill="#8A3A14" opacity="0.55"/>
</svg>
