<svg xmlns="http://www.w3.org/2000/svg" width="300" height="300" viewBox="0 0 300 300" role="img" aria-label="Original cute monster 081">
  <defs>
    <radialGradient id="bg" cx="50%" cy="32%" r="72%">
      <stop offset="0%" stop-color="#ffffff"/>
      <stop offset="100%" stop-color="#f2f7ff"/>
    </radialGradient>
  </defs>

  <rect x="0" y="0" width="300" height="300" rx="24" fill="url(#bg)"/>
  <ellipse cx="150" cy="246" rx="78" ry="20" fill="#cad8f0" opacity="0.5"/>

  
  
        <path d="M 111 120 C 91 94, 103 78, 117 110" fill="#B8F4ED" stroke="#1C6B62" stroke-width="3"/>
        <path d="M 190 120 C 210 94, 198 78, 184 110" fill="#B8F4ED" stroke="#1C6B62" stroke-width="3"/>
        
  
  <rect x="93" y="102" width="115" height="92" rx="26" fill="#B8F4ED" stroke="#1C6B62" stroke-width="4"/>
  <ellipse cx="150" cy="170" rx="28" ry="15" fill="#ffffff" opacity="0.55"/>
  
    <ellipse cx="101" cy="159.0" rx="8" ry="14" fill="#B8F4ED" stroke="#1C6B62" stroke-width="3"/>
    <ellipse cx="200" cy="159.0" rx="8" ry="14" fill="#B8F4ED" stroke="#1C6B62" stroke-width="3"/>
    
  
    <ellipse cx="117" cy="198" rx="13" ry="8" fill="#B8F4ED" stroke="#1C6B62" stroke-width="3"/>
    <ellipse cx="184" cy="198" rx="13" ry="8" fill="#B8F4ED" stroke="#1C6B62" stroke-width="3"/>
    

  
    <ellipse cx="136" cy="134" rx="8.225194199761088" ry="9.870233039713305" fill="#ffffff"/>
    <circle cx="136" cy="134.4" r="4.523856809868598" fill="#7A3F14"/>
    <circle cx="135.2" cy="133.4" r="1.8095427239474393" fill="#ffffff" opacity="0.95"/>
    
  
    <ellipse cx="164" cy="134" rx="8.225194199761088" ry="9.870233039713305" fill="#ffffff"/>
    <circle cx="164" cy="134.4" r="4.523856809868598" fill="#7A3F14"/>
    <circle cx="163.2" cy="133.4" r="1.8095427239474393" fill="#ffffff" opacity="0.95"/>
    
  
        <circle cx="122" cy="144" r="6" fill="#ff8faf" opacity="0.65"/>
        <circle cx="178" cy="144" r="6" fill="#ff8faf" opacity="0.65"/>
        

  <path d="M 134 156 Q 150 160 166 156" stroke="#1C6B62" stroke-width="4" fill="none" stroke-linecap="round"/>
  <circle cx="126" cy="152" r="1.8" fill="#1C6B62" opacity="0.55"/>
  <circle cx="174" cy="152" r="1.8" fill="#1C6B62" opacity="0.55"/>
</svg>
