<svg xmlns="http://www.w3.org/2000/svg" width="300" height="300" viewBox="0 0 300 300" role="img" aria-label="Original cute monster 097">
  <defs>
    <radialGradient id="bg" cx="50%" cy="32%" r="72%">
      <stop offset="0%" stop-color="#ffffff"/>
      <stop offset="100%" stop-color="#f2f7ff"/>
    </radialGradient>
  </defs>

  <rect x="0" y="0" width="300" height="300" rx="24" fill="url(#bg)"/>
  <ellipse cx="150" cy="246" rx="78" ry="20" fill="#cad8f0" opacity="0.5"/>

  
  
        <ellipse cx="109" cy="135" rx="10" ry="14" fill="#FFD1A9" stroke="#8A3A14" stroke-width="3"/>
        <ellipse cx="191" cy="135" rx="10" ry="14" fill="#FFD1A9" stroke="#8A3A14" stroke-width="3"/>
        
  <path d="M 150 133 L 144 107 L 156 107 Z" fill="#FF9B63" stroke="#8A3A14" stroke-width="3"/>
  <rect x="95" y="125" width="110" height="123" rx="27" fill="#FFD1A9" stroke="#8A3A14" stroke-width="4"/>
  <rect x="107" y="159" width="86" height="7" rx="3" fill="#FF9B63" opacity="0.42"/>
        <rect x="107" y="175" width="86" height="7" rx="3" fill="#FF9B63" opacity="0.42"/>
        <rect x="107" y="191" width="86" height="7" rx="3" fill="#FF9B63" opacity="0.42"/>
  
    <ellipse cx="103" cy="201.3" rx="8" ry="14" fill="#FFD1A9" stroke="#8A3A14" stroke-width="3"/>
    <ellipse cx="197" cy="201.3" rx="8" ry="14" fill="#FFD1A9" stroke="#8A3A14" stroke-width="3"/>
    
  
    <ellipse cx="119" cy="252" rx="13" ry="8" fill="#FFD1A9" stroke="#8A3A14" stroke-width="3"/>
    <ellipse cx="181" cy="252" rx="13" ry="8" fill="#FFD1A9" stroke="#8A3A14" stroke-width="3"/>
    

  
    <ellipse cx="133" cy="168" rx="6.847378945522627" ry="8.216854734627152" fill="#ffffff"/>
    <circle cx="133" cy="168.4" r="3.7660584200374454" fill="#314A9A"/>
    <circle cx="132.2" cy="167.4" r="1.5064233680149781" fill="#ffffff" opacity="0.95"/>
    
  
    <ellipse cx="167" cy="168" rx="6.847378945522627" ry="8.216854734627152" fill="#ffffff"/>
    <circle cx="167" cy="168.4" r="3.7660584200374454" fill="#314A9A"/>
    <circle cx="166.2" cy="167.4" r="1.5064233680149781" fill="#ffffff" opacity="0.95"/>
    
  
        <circle cx="119" cy="178" r="6" fill="#ff8faf" opacity="0.65"/>
        <circle cx="181" cy="178" r="6" fill="#ff8faf" opacity="0.65"/>
        

  <path d="M 134 192 Q 150 202 166 192" stroke="#8A3A14" stroke-width="4" fill="none" stroke-linecap="round"/>
  <circle cx="126" cy="188" r="1.8" fill="#8A3A14" opacity="0.55"/>
  <circle cx="174" cy="188" r="1.8" fill="#8A3A14" opacity="0.55"/>
</svg>
