<svg xmlns="http://www.w3.org/2000/svg" width="300" height="300" viewBox="0 0 300 300" role="img" aria-label="Original cute monster 024">
  <defs>
    <radialGradient id="bg" cx="50%" cy="32%" r="72%">
      <stop offset="0%" stop-color="#ffffff"/>
      <stop offset="100%" stop-color="#f2f7ff"/>
    </radialGradient>
  </defs>

  <rect x="0" y="0" width="300" height="300" rx="24" fill="url(#bg)"/>
  <ellipse cx="150" cy="246" rx="78" ry="20" fill="#cad8f0" opacity="0.5"/>

  
  
        <path d="M 123 120 C 103 94, 115 78, 129 110" fill="#FF9FD2" stroke="#7A2350" stroke-width="3"/>
        <path d="M 177 120 C 197 94, 185 78, 171 110" fill="#FF9FD2" stroke="#7A2350" stroke-width="3"/>
        
  <path d="M 150 110 L 144 84 L 156 84 Z" fill="#FF71B8" stroke="#7A2350" stroke-width="3"/>
  <rect x="105" y="102" width="90" height="91" rx="36" fill="#FF9FD2" stroke="#7A2350" stroke-width="4"/>
  <ellipse cx="150" cy="169" rx="22" ry="15" fill="#ffffff" opacity="0.55"/>
  
    <ellipse cx="113" cy="158.4" rx="8" ry="14" fill="#FF9FD2" stroke="#7A2350" stroke-width="3"/>
    <ellipse cx="187" cy="158.4" rx="8" ry="14" fill="#FF9FD2" stroke="#7A2350" stroke-width="3"/>
    
  
    <ellipse cx="129" cy="197" rx="13" ry="8" fill="#FF9FD2" stroke="#7A2350" stroke-width="3"/>
    <ellipse cx="171" cy="197" rx="13" ry="8" fill="#FF9FD2" stroke="#7A2350" stroke-width="3"/>
    

  
    <ellipse cx="136" cy="133" rx="7.784172990322485" ry="9.341007588386981" fill="#ffffff"/>
    <circle cx="136" cy="133.4" r="4.281295144677367" fill="#314A9A"/>
    <circle cx="135.2" cy="132.4" r="1.7125180578709467" fill="#ffffff" opacity="0.95"/>
    
  
    <ellipse cx="164" cy="133" rx="7.784172990322485" ry="9.341007588386981" fill="#ffffff"/>
    <circle cx="164" cy="133.4" r="4.281295144677367" fill="#314A9A"/>
    <circle cx="163.2" cy="132.4" r="1.7125180578709467" fill="#ffffff" opacity="0.95"/>
    
  
        <circle cx="122" cy="143" r="6" fill="#ff8faf" opacity="0.65"/>
        <circle cx="178" cy="143" r="6" fill="#ff8faf" opacity="0.65"/>
        

  <path d="M 134 154 Q 150 161 166 154" stroke="#7A2350" stroke-width="4" fill="none" stroke-linecap="round"/>
  <circle cx="126" cy="150" r="1.8" fill="#7A2350" opacity="0.55"/>
  <circle cx="174" cy="150" r="1.8" fill="#7A2350" opacity="0.55"/>
</svg>
