<svg xmlns="http://www.w3.org/2000/svg" width="300" height="300" viewBox="0 0 300 300" role="img" aria-label="Original cute monster 099">
  <defs>
    <radialGradient id="bg" cx="50%" cy="32%" r="72%">
      <stop offset="0%" stop-color="#ffffff"/>
      <stop offset="100%" stop-color="#f2f7ff"/>
    </radialGradient>
  </defs>

  <rect x="0" y="0" width="300" height="300" rx="24" fill="url(#bg)"/>
  <ellipse cx="150" cy="246" rx="78" ry="20" fill="#cad8f0" opacity="0.5"/>

  
        <path d="M 95 167 C 79 143, 81 199, 105 187" fill="#9B7BFF" opacity="0.85"/>
        <path d="M 206 167 C 222 143, 220 199, 196 187" fill="#9B7BFF" opacity="0.85"/>
        
  
        <ellipse cx="117" cy="135" rx="10" ry="14" fill="#C8B1FF" stroke="#45208A" stroke-width="3"/>
        <ellipse cx="184" cy="135" rx="10" ry="14" fill="#C8B1FF" stroke="#45208A" stroke-width="3"/>
        
  
  <rect x="103" y="125" width="95" height="107" rx="31" fill="#C8B1FF" stroke="#45208A" stroke-width="4"/>
  <rect x="115" y="159" width="71" height="7" rx="3" fill="#9B7BFF" opacity="0.42"/>
        <rect x="115" y="175" width="71" height="7" rx="3" fill="#9B7BFF" opacity="0.42"/>
        <rect x="115" y="191" width="71" height="7" rx="3" fill="#9B7BFF" opacity="0.42"/>
        <rect x="115" y="207" width="71" height="7" rx="3" fill="#9B7BFF" opacity="0.42"/>
  
    <ellipse cx="111" cy="191.3" rx="8" ry="14" fill="#C8B1FF" stroke="#45208A" stroke-width="3"/>
    <ellipse cx="190" cy="191.3" rx="8" ry="14" fill="#C8B1FF" stroke="#45208A" stroke-width="3"/>
    
  
    <ellipse cx="127" cy="236" rx="13" ry="8" fill="#C8B1FF" stroke="#45208A" stroke-width="3"/>
    <ellipse cx="174" cy="236" rx="13" ry="8" fill="#C8B1FF" stroke="#45208A" stroke-width="3"/>
    

  
    <ellipse cx="134" cy="162" rx="8.497696818483748" ry="10.197236182180497" fill="#ffffff"/>
    <circle cx="134" cy="162.4" r="4.673733250166062" fill="#6E2D8A"/>
    <circle cx="133.2" cy="161.4" r="1.8694933000664244" fill="#ffffff" opacity="0.95"/>
    
  
    <ellipse cx="166" cy="162" rx="8.497696818483748" ry="10.197236182180497" fill="#ffffff"/>
    <circle cx="166" cy="162.4" r="4.673733250166062" fill="#6E2D8A"/>
    <circle cx="165.2" cy="161.4" r="1.8694933000664244" fill="#ffffff" opacity="0.95"/>
    
  

  <path d="M 134 185 Q 150 195 166 185" stroke="#45208A" stroke-width="4" fill="none" stroke-linecap="round"/>
  <circle cx="126" cy="181" r="1.8" fill="#45208A" opacity="0.55"/>
  <circle cx="174" cy="181" r="1.8" fill="#45208A" opacity="0.55"/>
</svg>
