<svg xmlns="http://www.w3.org/2000/svg" width="300" height="300" viewBox="0 0 300 300" role="img" aria-label="Original cute monster 027">
  <defs>
    <radialGradient id="bg" cx="50%" cy="32%" r="72%">
      <stop offset="0%" stop-color="#ffffff"/>
      <stop offset="100%" stop-color="#f2f7ff"/>
    </radialGradient>
  </defs>

  <rect x="0" y="0" width="300" height="300" rx="24" fill="url(#bg)"/>
  <ellipse cx="150" cy="246" rx="78" ry="20" fill="#cad8f0" opacity="0.5"/>

  
        <path d="M 91 164 C 75 140, 77 196, 101 184" fill="#9B7BFF" opacity="0.85"/>
        <path d="M 209 164 C 225 140, 223 196, 199 184" fill="#9B7BFF" opacity="0.85"/>
        
  
        <ellipse cx="113" cy="132" rx="10" ry="14" fill="#C8B1FF" stroke="#45208A" stroke-width="3"/>
        <ellipse cx="187" cy="132" rx="10" ry="14" fill="#C8B1FF" stroke="#45208A" stroke-width="3"/>
        
  
        <path d="M 127 132 C 119 104, 129 96, 139 92" stroke="#45208A" stroke-width="3" fill="none"/>
        <circle cx="139" cy="92" r="4" fill="#9B7BFF"/>
        <path d="M 173 132 C 181 104, 171 96, 161 92" stroke="#45208A" stroke-width="3" fill="none"/>
        <circle cx="161" cy="92" r="4" fill="#9B7BFF"/>
        
  <rect x="99" y="122" width="102" height="122" rx="39" fill="#C8B1FF" stroke="#45208A" stroke-width="4"/>
  <ellipse cx="150" cy="220" rx="25" ry="20" fill="#ffffff" opacity="0.55"/>
  
    <ellipse cx="107" cy="197.6" rx="8" ry="14" fill="#C8B1FF" stroke="#45208A" stroke-width="3"/>
    <ellipse cx="193" cy="197.6" rx="8" ry="14" fill="#C8B1FF" stroke="#45208A" stroke-width="3"/>
    
  
    <ellipse cx="123" cy="248" rx="13" ry="8" fill="#C8B1FF" stroke="#45208A" stroke-width="3"/>
    <ellipse cx="177" cy="248" rx="13" ry="8" fill="#C8B1FF" stroke="#45208A" stroke-width="3"/>
    

  
    <ellipse cx="136" cy="164" rx="6.369861148164042" ry="7.643833377796851" fill="#ffffff"/>
    <circle cx="136" cy="164.4" r="3.5034236314902234" fill="#6E2D8A"/>
    <circle cx="135.2" cy="163.4" r="1.4013694525960894" fill="#ffffff" opacity="0.95"/>
    
  
    <ellipse cx="164" cy="164" rx="6.369861148164042" ry="7.643833377796851" fill="#ffffff"/>
    <circle cx="164" cy="164.4" r="3.5034236314902234" fill="#6E2D8A"/>
    <circle cx="163.2" cy="163.4" r="1.4013694525960894" fill="#ffffff" opacity="0.95"/>
    
  
        <circle cx="122" cy="174" r="6" fill="#ff8faf" opacity="0.65"/>
        <circle cx="178" cy="174" r="6" fill="#ff8faf" opacity="0.65"/>
        

  <path d="M 134 189 Q 150 196 166 189" stroke="#45208A" stroke-width="4" fill="none" stroke-linecap="round"/>
  <circle cx="126" cy="185" r="1.8" fill="#45208A" opacity="0.55"/>
  <circle cx="174" cy="185" r="1.8" fill="#45208A" opacity="0.55"/>
</svg>
