<svg xmlns="http://www.w3.org/2000/svg" width="300" height="300" viewBox="0 0 300 300" role="img" aria-label="Original cute monster 009">
  <defs>
    <radialGradient id="bg" cx="50%" cy="32%" r="72%">
      <stop offset="0%" stop-color="#ffffff"/>
      <stop offset="100%" stop-color="#f2f7ff"/>
    </radialGradient>
  </defs>

  <rect x="0" y="0" width="300" height="300" rx="24" fill="url(#bg)"/>
  <ellipse cx="150" cy="246" rx="78" ry="20" fill="#cad8f0" opacity="0.5"/>

  
        <ellipse cx="94" cy="167" rx="12" ry="20" fill="#FF71B8" opacity="0.85"/>
        <ellipse cx="206" cy="167" rx="12" ry="20" fill="#FF71B8" opacity="0.85"/>
        
  
        <path d="M 116 141 L 108 115 L 128 137 Z" fill="#FF9FD2" stroke="#7A2350" stroke-width="3"/>
        <path d="M 184 141 L 192 115 L 172 137 Z" fill="#FF9FD2" stroke="#7A2350" stroke-width="3"/>
        
  <path d="M 150 131 L 144 105 L 156 105 Z" fill="#FF71B8" stroke="#7A2350" stroke-width="3"/>
  <rect x="100" y="123" width="100" height="109" rx="34" fill="#FF9FD2" stroke="#7A2350" stroke-width="4"/>
  <circle cx="166" cy="200" r="5" fill="#FF71B8" opacity="0.45"/>
        <circle cx="117" cy="168" r="5" fill="#FF71B8" opacity="0.45"/>
        <circle cx="140" cy="199" r="9" fill="#FF71B8" opacity="0.45"/>
        <circle cx="116" cy="166" r="10" fill="#FF71B8" opacity="0.45"/>
        <circle cx="160" cy="155" r="10" fill="#FF71B8" opacity="0.45"/>
  
    <ellipse cx="108" cy="190.6" rx="8" ry="14" fill="#FF9FD2" stroke="#7A2350" stroke-width="3"/>
    <ellipse cx="192" cy="190.6" rx="8" ry="14" fill="#FF9FD2" stroke="#7A2350" stroke-width="3"/>
    
  
    <ellipse cx="124" cy="236" rx="13" ry="8" fill="#FF9FD2" stroke="#7A2350" stroke-width="3"/>
    <ellipse cx="176" cy="236" rx="13" ry="8" fill="#FF9FD2" stroke="#7A2350" stroke-width="3"/>
    

  
    <ellipse cx="131" cy="161" rx="7.159189355145827" ry="8.591027226174992" fill="#ffffff"/>
    <circle cx="131" cy="161.4" r="3.937554145330205" fill="#2A2A2A"/>
    <circle cx="130.2" cy="160.4" r="1.575021658132082" fill="#ffffff" opacity="0.95"/>
    
  
    <ellipse cx="169" cy="161" rx="7.159189355145827" ry="8.591027226174992" fill="#ffffff"/>
    <circle cx="169" cy="161.4" r="3.937554145330205" fill="#2A2A2A"/>
    <circle cx="168.2" cy="160.4" r="1.575021658132082" fill="#ffffff" opacity="0.95"/>
    
  

  <path d="M 134 184 Q 150 188 166 184" stroke="#7A2350" stroke-width="4" fill="none" stroke-linecap="round"/>
  <circle cx="126" cy="180" r="1.8" fill="#7A2350" opacity="0.55"/>
  <circle cx="174" cy="180" r="1.8" fill="#7A2350" opacity="0.55"/>
</svg>
