<svg xmlns="http://www.w3.org/2000/svg" width="300" height="300" viewBox="0 0 300 300" role="img" aria-label="Original cute monster 031">
  <defs>
    <radialGradient id="bg" cx="50%" cy="32%" r="72%">
      <stop offset="0%" stop-color="#ffffff"/>
      <stop offset="100%" stop-color="#f2f7ff"/>
    </radialGradient>
  </defs>

  <rect x="0" y="0" width="300" height="300" rx="24" fill="url(#bg)"/>
  <ellipse cx="150" cy="246" rx="78" ry="20" fill="#cad8f0" opacity="0.5"/>

  
  
        <ellipse cx="110" cy="134" rx="10" ry="14" fill="#B5F3A8" stroke="#2F6B2A" stroke-width="3"/>
        <ellipse cx="190" cy="134" rx="10" ry="14" fill="#B5F3A8" stroke="#2F6B2A" stroke-width="3"/>
        
  
        <path d="M 124 134 C 116 106, 126 98, 136 94" stroke="#2F6B2A" stroke-width="3" fill="none"/>
        <circle cx="136" cy="94" r="4" fill="#76D46B"/>
        <path d="M 176 134 C 184 106, 174 98, 164 94" stroke="#2F6B2A" stroke-width="3" fill="none"/>
        <circle cx="164" cy="94" r="4" fill="#76D46B"/>
        
  <rect x="96" y="124" width="108" height="113" rx="29" fill="#B5F3A8" stroke="#2F6B2A" stroke-width="4"/>
  
  
    <ellipse cx="104" cy="194.1" rx="8" ry="14" fill="#B5F3A8" stroke="#2F6B2A" stroke-width="3"/>
    <ellipse cx="196" cy="194.1" rx="8" ry="14" fill="#B5F3A8" stroke="#2F6B2A" stroke-width="3"/>
    
  
    <ellipse cx="120" cy="241" rx="13" ry="8" fill="#B5F3A8" stroke="#2F6B2A" stroke-width="3"/>
    <ellipse cx="180" cy="241" rx="13" ry="8" fill="#B5F3A8" stroke="#2F6B2A" stroke-width="3"/>
    

  
    <ellipse cx="135" cy="163" rx="6.501051422988533" ry="7.801261707586239" fill="#ffffff"/>
    <circle cx="135" cy="163.4" r="3.575578282643693" fill="#314A9A"/>
    <circle cx="134.2" cy="162.4" r="1.430231313057477" fill="#ffffff" opacity="0.95"/>
    
  
    <ellipse cx="165" cy="163" rx="6.501051422988533" ry="7.801261707586239" fill="#ffffff"/>
    <circle cx="165" cy="163.4" r="3.575578282643693" fill="#314A9A"/>
    <circle cx="164.2" cy="162.4" r="1.430231313057477" fill="#ffffff" opacity="0.95"/>
    
  
        <circle cx="121" cy="173" r="6" fill="#ff8faf" opacity="0.65"/>
        <circle cx="179" cy="173" r="6" fill="#ff8faf" opacity="0.65"/>
        

  <path d="M 134 184 Q 150 194 166 184" stroke="#2F6B2A" stroke-width="4" fill="none" stroke-linecap="round"/>
  <circle cx="126" cy="180" r="1.8" fill="#2F6B2A" opacity="0.55"/>
  <circle cx="174" cy="180" r="1.8" fill="#2F6B2A" opacity="0.55"/>
</svg>
