<svg xmlns="http://www.w3.org/2000/svg" width="300" height="300" viewBox="0 0 300 300" role="img" aria-label="Original cute monster 095">
  <defs>
    <radialGradient id="bg" cx="50%" cy="32%" r="72%">
      <stop offset="0%" stop-color="#ffffff"/>
      <stop offset="100%" stop-color="#f2f7ff"/>
    </radialGradient>
  </defs>

  <rect x="0" y="0" width="300" height="300" rx="24" fill="url(#bg)"/>
  <ellipse cx="150" cy="246" rx="78" ry="20" fill="#cad8f0" opacity="0.5"/>

  
        <path d="M 87 161 C 71 137, 73 193, 97 181" fill="#5AB9FF" opacity="0.85"/>
        <path d="M 214 161 C 230 137, 228 193, 204 181" fill="#5AB9FF" opacity="0.85"/>
        
  
  
  <rect x="95" y="119" width="111" height="88" rx="33" fill="#8EE6FF" stroke="#1E4C7A" stroke-width="4"/>
  
  
    <ellipse cx="103" cy="173.6" rx="8" ry="14" fill="#8EE6FF" stroke="#1E4C7A" stroke-width="3"/>
    <ellipse cx="198" cy="173.6" rx="8" ry="14" fill="#8EE6FF" stroke="#1E4C7A" stroke-width="3"/>
    
  
    <ellipse cx="119" cy="211" rx="13" ry="8" fill="#8EE6FF" stroke="#1E4C7A" stroke-width="3"/>
    <ellipse cx="182" cy="211" rx="13" ry="8" fill="#8EE6FF" stroke="#1E4C7A" stroke-width="3"/>
    

  
    <ellipse cx="135" cy="149" rx="6.37148837086069" ry="7.645786045032827" fill="#ffffff"/>
    <circle cx="135" cy="149.4" r="3.50431860397338" fill="#7A3F14"/>
    <circle cx="134.2" cy="148.4" r="1.4017274415893517" fill="#ffffff" opacity="0.95"/>
    
  
    <ellipse cx="165" cy="149" rx="6.37148837086069" ry="7.645786045032827" fill="#ffffff"/>
    <circle cx="165" cy="149.4" r="3.50431860397338" fill="#7A3F14"/>
    <circle cx="164.2" cy="148.4" r="1.4017274415893517" fill="#ffffff" opacity="0.95"/>
    
  
        <circle cx="121" cy="159" r="6" fill="#ff8faf" opacity="0.65"/>
        <circle cx="179" cy="159" r="6" fill="#ff8faf" opacity="0.65"/>
        

  <path d="M 134 170 Q 150 174 166 170" stroke="#1E4C7A" stroke-width="4" fill="none" stroke-linecap="round"/>
  <circle cx="126" cy="166" r="1.8" fill="#1E4C7A" opacity="0.55"/>
  <circle cx="174" cy="166" r="1.8" fill="#1E4C7A" opacity="0.55"/>
</svg>
