<svg xmlns="http://www.w3.org/2000/svg" width="300" height="300" viewBox="0 0 300 300" role="img" aria-label="Original cute monster 098">
  <defs>
    <radialGradient id="bg" cx="50%" cy="32%" r="72%">
      <stop offset="0%" stop-color="#ffffff"/>
      <stop offset="100%" stop-color="#f2f7ff"/>
    </radialGradient>
  </defs>

  <rect x="0" y="0" width="300" height="300" rx="24" fill="url(#bg)"/>
  <ellipse cx="150" cy="246" rx="78" ry="20" fill="#cad8f0" opacity="0.5"/>

  
        <path d="M 91 167 C 75 143, 77 199, 101 187" fill="#5AB9FF" opacity="0.85"/>
        <path d="M 209 167 C 225 143, 223 199, 199 187" fill="#5AB9FF" opacity="0.85"/>
        
  
  
        <path d="M 133 137 L 125 111 L 139 127 Z" fill="#5AB9FF" stroke="#1E4C7A" stroke-width="3"/>
        <path d="M 167 137 L 175 111 L 161 127 Z" fill="#5AB9FF" stroke="#1E4C7A" stroke-width="3"/>
        
  <rect x="99" y="125" width="102" height="111" rx="32" fill="#8EE6FF" stroke="#1E4C7A" stroke-width="4"/>
  <rect x="111" y="159" width="78" height="7" rx="3" fill="#5AB9FF" opacity="0.42"/>
        <rect x="111" y="175" width="78" height="7" rx="3" fill="#5AB9FF" opacity="0.42"/>
        <rect x="111" y="191" width="78" height="7" rx="3" fill="#5AB9FF" opacity="0.42"/>
        <rect x="111" y="207" width="78" height="7" rx="3" fill="#5AB9FF" opacity="0.42"/>
  
    <ellipse cx="107" cy="193.8" rx="8" ry="14" fill="#8EE6FF" stroke="#1E4C7A" stroke-width="3"/>
    <ellipse cx="193" cy="193.8" rx="8" ry="14" fill="#8EE6FF" stroke="#1E4C7A" stroke-width="3"/>
    
  
    <ellipse cx="123" cy="240" rx="13" ry="8" fill="#8EE6FF" stroke="#1E4C7A" stroke-width="3"/>
    <ellipse cx="177" cy="240" rx="13" ry="8" fill="#8EE6FF" stroke="#1E4C7A" stroke-width="3"/>
    

  
    <ellipse cx="136" cy="163" rx="7.827909053368739" ry="9.393490864042485" fill="#ffffff"/>
    <circle cx="136" cy="163.4" r="4.3053499793528065" fill="#314A9A"/>
    <circle cx="135.2" cy="162.4" r="1.7221399917411226" fill="#ffffff" opacity="0.95"/>
    
  
    <ellipse cx="164" cy="163" rx="7.827909053368739" ry="9.393490864042485" fill="#ffffff"/>
    <circle cx="164" cy="163.4" r="4.3053499793528065" fill="#314A9A"/>
    <circle cx="163.2" cy="162.4" r="1.7221399917411226" fill="#ffffff" opacity="0.95"/>
    
  
        <circle cx="122" cy="173" r="6" fill="#ff8faf" opacity="0.65"/>
        <circle cx="178" cy="173" r="6" fill="#ff8faf" opacity="0.65"/>
        

  <path d="M 134 180 Q 150 184 166 180" stroke="#1E4C7A" stroke-width="4" fill="none" stroke-linecap="round"/>
  <circle cx="126" cy="176" r="1.8" fill="#1E4C7A" opacity="0.55"/>
  <circle cx="174" cy="176" r="1.8" fill="#1E4C7A" opacity="0.55"/>
</svg>
