<svg xmlns="http://www.w3.org/2000/svg" width="300" height="300" viewBox="0 0 300 300" role="img" aria-label="Original cute monster 073">
  <defs>
    <radialGradient id="bg" cx="50%" cy="32%" r="72%">
      <stop offset="0%" stop-color="#ffffff"/>
      <stop offset="100%" stop-color="#f2f7ff"/>
    </radialGradient>
  </defs>

  <rect x="0" y="0" width="300" height="300" rx="24" fill="url(#bg)"/>
  <ellipse cx="150" cy="246" rx="78" ry="20" fill="#cad8f0" opacity="0.5"/>

  
        <path d="M 95 164 C 79 140, 81 196, 105 184" fill="#9B7BFF" opacity="0.85"/>
        <path d="M 206 164 C 222 140, 220 196, 196 184" fill="#9B7BFF" opacity="0.85"/>
        
  
  
  <rect x="103" y="122" width="95" height="94" rx="40" fill="#C8B1FF" stroke="#45208A" stroke-width="4"/>
  
  
    <ellipse cx="111" cy="180.3" rx="8" ry="14" fill="#C8B1FF" stroke="#45208A" stroke-width="3"/>
    <ellipse cx="190" cy="180.3" rx="8" ry="14" fill="#C8B1FF" stroke="#45208A" stroke-width="3"/>
    
  
    <ellipse cx="127" cy="220" rx="13" ry="8" fill="#C8B1FF" stroke="#45208A" stroke-width="3"/>
    <ellipse cx="174" cy="220" rx="13" ry="8" fill="#C8B1FF" stroke="#45208A" stroke-width="3"/>
    

  
    <ellipse cx="135" cy="154" rx="6.808481880225945" ry="8.170178256271134" fill="#ffffff"/>
    <circle cx="135" cy="154.4" r="3.74466503412427" fill="#6E2D8A"/>
    <circle cx="134.2" cy="153.4" r="1.497866013649708" fill="#ffffff" opacity="0.95"/>
    
  
    <ellipse cx="165" cy="154" rx="6.808481880225945" ry="8.170178256271134" fill="#ffffff"/>
    <circle cx="165" cy="154.4" r="3.74466503412427" fill="#6E2D8A"/>
    <circle cx="164.2" cy="153.4" r="1.497866013649708" fill="#ffffff" opacity="0.95"/>
    
  
        <circle cx="121" cy="164" r="6" fill="#ff8faf" opacity="0.65"/>
        <circle cx="179" cy="164" r="6" fill="#ff8faf" opacity="0.65"/>
        

  <path d="M 134 171 Q 150 178 166 171" stroke="#45208A" stroke-width="4" fill="none" stroke-linecap="round"/>
  <circle cx="126" cy="167" r="1.8" fill="#45208A" opacity="0.55"/>
  <circle cx="174" cy="167" r="1.8" fill="#45208A" opacity="0.55"/>
</svg>
