<svg xmlns="http://www.w3.org/2000/svg" width="300" height="300" viewBox="0 0 300 300" role="img" aria-label="Original cute monster 078">
  <defs>
    <radialGradient id="bg" cx="50%" cy="32%" r="72%">
      <stop offset="0%" stop-color="#ffffff"/>
      <stop offset="100%" stop-color="#f2f7ff"/>
    </radialGradient>
  </defs>

  <rect x="0" y="0" width="300" height="300" rx="24" fill="url(#bg)"/>
  <ellipse cx="150" cy="246" rx="78" ry="20" fill="#cad8f0" opacity="0.5"/>

  
  
        <path d="M 116 134 C 96 108, 108 92, 122 124" fill="#B8F4ED" stroke="#1C6B62" stroke-width="3"/>
        <path d="M 184 134 C 204 108, 192 92, 178 124" fill="#B8F4ED" stroke="#1C6B62" stroke-width="3"/>
        
  
        <path d="M 126 126 C 118 98, 128 90, 138 86" stroke="#1C6B62" stroke-width="3" fill="none"/>
        <circle cx="138" cy="86" r="4" fill="#62D9C9"/>
        <path d="M 174 126 C 182 98, 172 90, 162 86" stroke="#1C6B62" stroke-width="3" fill="none"/>
        <circle cx="162" cy="86" r="4" fill="#62D9C9"/>
        
  <rect x="98" y="116" width="104" height="118" rx="35" fill="#B8F4ED" stroke="#1C6B62" stroke-width="4"/>
  <ellipse cx="150" cy="210" rx="26" ry="19" fill="#ffffff" opacity="0.55"/>
  
    <ellipse cx="106" cy="189.2" rx="8" ry="14" fill="#B8F4ED" stroke="#1C6B62" stroke-width="3"/>
    <ellipse cx="194" cy="189.2" rx="8" ry="14" fill="#B8F4ED" stroke="#1C6B62" stroke-width="3"/>
    
  
    <ellipse cx="122" cy="238" rx="13" ry="8" fill="#B8F4ED" stroke="#1C6B62" stroke-width="3"/>
    <ellipse cx="178" cy="238" rx="13" ry="8" fill="#B8F4ED" stroke="#1C6B62" stroke-width="3"/>
    

  
    <ellipse cx="136" cy="157" rx="6.922980233944129" ry="8.307576280732954" fill="#ffffff"/>
    <circle cx="136" cy="157.4" r="3.8076391286692712" fill="#314A9A"/>
    <circle cx="135.2" cy="156.4" r="1.5230556514677083" fill="#ffffff" opacity="0.95"/>
    
  
    <ellipse cx="164" cy="157" rx="6.922980233944129" ry="8.307576280732954" fill="#ffffff"/>
    <circle cx="164" cy="157.4" r="3.8076391286692712" fill="#314A9A"/>
    <circle cx="163.2" cy="156.4" r="1.5230556514677083" fill="#ffffff" opacity="0.95"/>
    
  
        <circle cx="122" cy="167" r="6" fill="#ff8faf" opacity="0.65"/>
        <circle cx="178" cy="167" r="6" fill="#ff8faf" opacity="0.65"/>
        

  <path d="M 134 181 Q 150 191 166 181" stroke="#1C6B62" stroke-width="4" fill="none" stroke-linecap="round"/>
  <circle cx="126" cy="177" r="1.8" fill="#1C6B62" opacity="0.55"/>
  <circle cx="174" cy="177" r="1.8" fill="#1C6B62" opacity="0.55"/>
</svg>
