<svg xmlns="http://www.w3.org/2000/svg" width="300" height="300" viewBox="0 0 300 300" role="img" aria-label="Original cute monster 069">
  <defs>
    <radialGradient id="bg" cx="50%" cy="32%" r="72%">
      <stop offset="0%" stop-color="#ffffff"/>
      <stop offset="100%" stop-color="#f2f7ff"/>
    </radialGradient>
  </defs>

  <rect x="0" y="0" width="300" height="300" rx="24" fill="url(#bg)"/>
  <ellipse cx="150" cy="246" rx="78" ry="20" fill="#cad8f0" opacity="0.5"/>

  
        <path d="M 92 152 C 76 128, 78 184, 102 172" fill="#FFB347" opacity="0.85"/>
        <path d="M 208 152 C 224 128, 222 184, 198 172" fill="#FFB347" opacity="0.85"/>
        
  
  
        <path d="M 128 120 C 120 92, 130 84, 140 80" stroke="#7B4B00" stroke-width="3" fill="none"/>
        <circle cx="140" cy="80" r="4" fill="#FFB347"/>
        <path d="M 172 120 C 180 92, 170 84, 160 80" stroke="#7B4B00" stroke-width="3" fill="none"/>
        <circle cx="160" cy="80" r="4" fill="#FFB347"/>
        
  <rect x="100" y="110" width="100" height="113" rx="38" fill="#FFD86B" stroke="#7B4B00" stroke-width="4"/>
  <ellipse cx="150" cy="199" rx="25" ry="18" fill="#ffffff" opacity="0.55"/>
  
    <ellipse cx="108" cy="180.1" rx="8" ry="14" fill="#FFD86B" stroke="#7B4B00" stroke-width="3"/>
    <ellipse cx="192" cy="180.1" rx="8" ry="14" fill="#FFD86B" stroke="#7B4B00" stroke-width="3"/>
    
  
    <ellipse cx="124" cy="227" rx="13" ry="8" fill="#FFD86B" stroke="#7B4B00" stroke-width="3"/>
    <ellipse cx="176" cy="227" rx="13" ry="8" fill="#FFD86B" stroke="#7B4B00" stroke-width="3"/>
    

  
    <ellipse cx="135" cy="149" rx="8.089983598468015" ry="9.707980318161617" fill="#ffffff"/>
    <circle cx="135" cy="149.4" r="4.449490979157408" fill="#2F6B2A"/>
    <circle cx="134.2" cy="148.4" r="1.7797963916629633" fill="#ffffff" opacity="0.95"/>
    
  
    <ellipse cx="165" cy="149" rx="8.089983598468015" ry="9.707980318161617" fill="#ffffff"/>
    <circle cx="165" cy="149.4" r="4.449490979157408" fill="#2F6B2A"/>
    <circle cx="164.2" cy="148.4" r="1.7797963916629633" fill="#ffffff" opacity="0.95"/>
    
  
        <circle cx="121" cy="159" r="6" fill="#ff8faf" opacity="0.65"/>
        <circle cx="179" cy="159" r="6" fill="#ff8faf" opacity="0.65"/>
        

  <path d="M 134 173 Q 150 180 166 173" stroke="#7B4B00" stroke-width="4" fill="none" stroke-linecap="round"/>
  <circle cx="126" cy="169" r="1.8" fill="#7B4B00" opacity="0.55"/>
  <circle cx="174" cy="169" r="1.8" fill="#7B4B00" opacity="0.55"/>
</svg>
