<svg xmlns="http://www.w3.org/2000/svg" width="300" height="300" viewBox="0 0 300 300" role="img" aria-label="Original cute monster 048">
  <defs>
    <radialGradient id="bg" cx="50%" cy="32%" r="72%">
      <stop offset="0%" stop-color="#ffffff"/>
      <stop offset="100%" stop-color="#f2f7ff"/>
    </radialGradient>
  </defs>

  <rect x="0" y="0" width="300" height="300" rx="24" fill="url(#bg)"/>
  <ellipse cx="150" cy="246" rx="78" ry="20" fill="#cad8f0" opacity="0.5"/>

  
        <ellipse cx="96" cy="170" rx="12" ry="20" fill="#FF9B63" opacity="0.85"/>
        <ellipse cx="204" cy="170" rx="12" ry="20" fill="#FF9B63" opacity="0.85"/>
        
  
  
  <rect x="102" y="126" width="96" height="107" rx="30" fill="#FFD1A9" stroke="#8A3A14" stroke-width="4"/>
  <ellipse cx="150" cy="209" rx="24" ry="17" fill="#ffffff" opacity="0.55"/>
  
    <ellipse cx="110" cy="192.3" rx="8" ry="14" fill="#FFD1A9" stroke="#8A3A14" stroke-width="3"/>
    <ellipse cx="190" cy="192.3" rx="8" ry="14" fill="#FFD1A9" stroke="#8A3A14" stroke-width="3"/>
    
  
    <ellipse cx="126" cy="237" rx="13" ry="8" fill="#FFD1A9" stroke="#8A3A14" stroke-width="3"/>
    <ellipse cx="174" cy="237" rx="13" ry="8" fill="#FFD1A9" stroke="#8A3A14" stroke-width="3"/>
    

  
    <ellipse cx="134" cy="163" rx="8.55877976681031" ry="10.270535720172372" fill="#ffffff"/>
    <circle cx="134" cy="163.4" r="4.707328871745672" fill="#2A2A2A"/>
    <circle cx="133.2" cy="162.4" r="1.8829315486982683" fill="#ffffff" opacity="0.95"/>
    
  
    <ellipse cx="166" cy="163" rx="8.55877976681031" ry="10.270535720172372" fill="#ffffff"/>
    <circle cx="166" cy="163.4" r="4.707328871745672" fill="#2A2A2A"/>
    <circle cx="165.2" cy="162.4" r="1.8829315486982683" fill="#ffffff" opacity="0.95"/>
    
  

  <path d="M 134 183 Q 150 187 166 183" stroke="#8A3A14" stroke-width="4" fill="none" stroke-linecap="round"/>
  <circle cx="126" cy="179" r="1.8" fill="#8A3A14" opacity="0.55"/>
  <circle cx="174" cy="179" r="1.8" fill="#8A3A14" opacity="0.55"/>
</svg>
