<svg xmlns="http://www.w3.org/2000/svg" width="300" height="300" viewBox="0 0 300 300" role="img" aria-label="Original cute monster 062">
  <defs>
    <radialGradient id="bg" cx="50%" cy="32%" r="72%">
      <stop offset="0%" stop-color="#ffffff"/>
      <stop offset="100%" stop-color="#f2f7ff"/>
    </radialGradient>
  </defs>

  <rect x="0" y="0" width="300" height="300" rx="24" fill="url(#bg)"/>
  <ellipse cx="150" cy="246" rx="78" ry="20" fill="#cad8f0" opacity="0.5"/>

  
        <ellipse cx="101" cy="159" rx="12" ry="20" fill="#FF9B63" opacity="0.85"/>
        <ellipse cx="199" cy="159" rx="12" ry="20" fill="#FF9B63" opacity="0.85"/>
        
  
        <ellipse cx="121" cy="125" rx="10" ry="14" fill="#FFD1A9" stroke="#8A3A14" stroke-width="3"/>
        <ellipse cx="179" cy="125" rx="10" ry="14" fill="#FFD1A9" stroke="#8A3A14" stroke-width="3"/>
        
  
        <path d="M 135 125 C 127 97, 137 89, 147 85" stroke="#8A3A14" stroke-width="3" fill="none"/>
        <circle cx="147" cy="85" r="4" fill="#FF9B63"/>
        <path d="M 165 125 C 173 97, 163 89, 153 85" stroke="#8A3A14" stroke-width="3" fill="none"/>
        <circle cx="153" cy="85" r="4" fill="#FF9B63"/>
        
  <rect x="107" y="115" width="86" height="122" rx="40" fill="#FFD1A9" stroke="#8A3A14" stroke-width="4"/>
  <ellipse cx="150" cy="213" rx="21" ry="20" fill="#ffffff" opacity="0.55"/>
  
    <ellipse cx="115" cy="190.6" rx="8" ry="14" fill="#FFD1A9" stroke="#8A3A14" stroke-width="3"/>
    <ellipse cx="185" cy="190.6" rx="8" ry="14" fill="#FFD1A9" stroke="#8A3A14" stroke-width="3"/>
    
  
    <ellipse cx="131" cy="241" rx="13" ry="8" fill="#FFD1A9" stroke="#8A3A14" stroke-width="3"/>
    <ellipse cx="169" cy="241" rx="13" ry="8" fill="#FFD1A9" stroke="#8A3A14" stroke-width="3"/>
    

  
    <ellipse cx="131" cy="157" rx="8.081967261754677" ry="9.698360714105613" fill="#ffffff"/>
    <circle cx="131" cy="157.4" r="4.445081993965073" fill="#314A9A"/>
    <circle cx="130.2" cy="156.4" r="1.778032797586029" fill="#ffffff" opacity="0.95"/>
    
  
    <ellipse cx="169" cy="157" rx="8.081967261754677" ry="9.698360714105613" fill="#ffffff"/>
    <circle cx="169" cy="157.4" r="4.445081993965073" fill="#314A9A"/>
    <circle cx="168.2" cy="156.4" r="1.778032797586029" fill="#ffffff" opacity="0.95"/>
    
  
        <circle cx="117" cy="167" r="6" fill="#ff8faf" opacity="0.65"/>
        <circle cx="183" cy="167" r="6" fill="#ff8faf" opacity="0.65"/>
        

  <path d="M 134 176 Q 150 186 166 176" stroke="#8A3A14" stroke-width="4" fill="none" stroke-linecap="round"/>
  <circle cx="126" cy="172" r="1.8" fill="#8A3A14" opacity="0.55"/>
  <circle cx="174" cy="172" r="1.8" fill="#8A3A14" opacity="0.55"/>
</svg>
